%TF.GenerationSoftware,Altium Limited,Altium Designer,22.7.1 (60)*%
G04 Layer_Physical_Order=2*
G04 Layer_Color=16711680*
%FSLAX45Y45*%
%MOMM*%
%TF.SameCoordinates,4B427231-4539-4B88-BEA9-E7C0DB0DE592*%
%TF.FilePolarity,Positive*%
%TF.FileFunction,Copper,L2,Bot,Signal*%
%TF.Part,Single*%
G01*
G75*
%TA.AperFunction,Conductor*%
%ADD20C,0.30000*%
%TA.AperFunction,ComponentPad*%
%ADD21R,1.60000X1.60000*%
%ADD22C,1.60000*%
%TA.AperFunction,ViaPad*%
%ADD23C,0.80000*%
G36*
X4007612Y30588D02*
X758632D01*
X728277Y33577D01*
X725608Y34108D01*
X696418Y42963D01*
X693906Y44004D01*
X667003Y58384D01*
X664743Y59893D01*
X641164Y79244D01*
X639238Y81170D01*
X619888Y104749D01*
X618377Y107010D01*
X603998Y133912D01*
X602957Y136425D01*
X594102Y165615D01*
X593571Y168283D01*
X590581Y198638D01*
Y350012D01*
X588253Y361717D01*
X581623Y371641D01*
X571699Y378271D01*
X559994Y380600D01*
X54409D01*
X51702Y384709D01*
X52607Y390530D01*
X65171Y409710D01*
X259707D01*
Y629709D01*
X55588D01*
X39708Y629709D01*
X30588Y650931D01*
Y708606D01*
X46907Y715428D01*
X55588Y715674D01*
X71255Y695257D01*
X94233Y677625D01*
X120992Y666541D01*
X149708Y662760D01*
X178423Y666541D01*
X205182Y677625D01*
X228160Y695257D01*
X245792Y718235D01*
X256876Y744994D01*
X260657Y773709D01*
X256876Y802425D01*
X245792Y829184D01*
X228160Y852162D01*
X205182Y869794D01*
X178423Y880878D01*
X149708Y884658D01*
X120992Y880878D01*
X94233Y869794D01*
X71255Y852162D01*
X55588Y831744D01*
X46907Y831991D01*
X30588Y838813D01*
Y962606D01*
X46907Y969428D01*
X55588Y969674D01*
X62045Y961260D01*
X139101Y1038316D01*
X149708Y1027709D01*
X160314Y1038316D01*
X237371Y961259D01*
X245792Y972235D01*
X256876Y998994D01*
X260657Y1027709D01*
X256876Y1056425D01*
X245792Y1083184D01*
X233204Y1099589D01*
X250525Y1118083D01*
X259149Y1112320D01*
X276708Y1108828D01*
X295788D01*
X308117Y1083828D01*
X307623Y1083184D01*
X296539Y1056425D01*
X292759Y1027709D01*
X296539Y998994D01*
X307623Y972235D01*
X325255Y949257D01*
X348233Y931625D01*
X374992Y920541D01*
X403708Y916760D01*
X432423Y920541D01*
X459182Y931625D01*
X482160Y949257D01*
X499792Y972235D01*
X510876Y998994D01*
X514657Y1027709D01*
X510876Y1056425D01*
X499792Y1083184D01*
X497692Y1085920D01*
X500326Y1101114D01*
X506683Y1115271D01*
X517153Y1122266D01*
X551010Y1156124D01*
X574107Y1146557D01*
Y983022D01*
X570064Y979920D01*
X558844Y965298D01*
X551791Y948269D01*
X549385Y929996D01*
X551791Y911722D01*
X558844Y894694D01*
X570064Y880071D01*
X574107Y876969D01*
Y740004D01*
X577600Y722445D01*
X587545Y707560D01*
X762551Y532554D01*
X777436Y522609D01*
X794995Y519116D01*
X1421327D01*
X1434698Y508857D01*
X1451726Y501803D01*
X1470000Y499398D01*
X1488273Y501803D01*
X1505302Y508857D01*
X1519924Y520077D01*
X1531144Y534699D01*
X1538198Y551728D01*
X1540603Y570001D01*
X1538198Y588275D01*
X1531144Y605303D01*
X1519924Y619926D01*
X1505302Y631146D01*
X1488273Y638199D01*
X1470000Y640605D01*
X1451726Y638199D01*
X1434698Y631146D01*
X1420075Y619926D01*
X1413133Y610879D01*
X813999D01*
X665870Y759008D01*
Y876969D01*
X669913Y880071D01*
X681133Y894694D01*
X688187Y911722D01*
X690592Y929996D01*
X688187Y948269D01*
X681133Y965298D01*
X669913Y979920D01*
X665870Y983022D01*
Y1257116D01*
X690870Y1258754D01*
X691795Y1251726D01*
X698849Y1234698D01*
X710069Y1220076D01*
X724691Y1208855D01*
X741720Y1201802D01*
X759993Y1199396D01*
X778267Y1201802D01*
X795295Y1208855D01*
X802791Y1214607D01*
X830181Y1219979D01*
X844803Y1208759D01*
X861831Y1201705D01*
X880105Y1199300D01*
X898378Y1201705D01*
X915407Y1208759D01*
X930029Y1219979D01*
X960081Y1220076D01*
X974704Y1208855D01*
X991732Y1201802D01*
X1010006Y1199396D01*
X1015052Y1200061D01*
X1127547Y1087547D01*
X1127548Y1087546D01*
X1127549Y1087544D01*
X1134627Y1082815D01*
X1142431Y1077600D01*
X1142433Y1077600D01*
X1142435Y1077599D01*
X1151258Y1075844D01*
X1159989Y1074106D01*
X1159991Y1074106D01*
X1159993Y1074106D01*
X2010993D01*
X2039118Y1045991D01*
Y577128D01*
X2024689Y571151D01*
X2010066Y559931D01*
X1998846Y545309D01*
X1991793Y528280D01*
X1989387Y510007D01*
X1991793Y491733D01*
X1998846Y474705D01*
X2010066Y460082D01*
X2024689Y448862D01*
X2041717Y441809D01*
X2059991Y439403D01*
X2078264Y441809D01*
X2095293Y448862D01*
X2109915Y460082D01*
X2130082D01*
X2144704Y448862D01*
X2161732Y441809D01*
X2180006Y439403D01*
X2198279Y441809D01*
X2215308Y448862D01*
X2229118Y459459D01*
X2232928Y458899D01*
X2254118Y450538D01*
Y349006D01*
X2120996Y215884D01*
X1733033D01*
X1729931Y219927D01*
X1715309Y231147D01*
X1698280Y238200D01*
X1680007Y240606D01*
X1661733Y238200D01*
X1644705Y231147D01*
X1630082Y219927D01*
X1618862Y205304D01*
X1611809Y188276D01*
X1609403Y170002D01*
X1611809Y151729D01*
X1618862Y134700D01*
X1630082Y120078D01*
X1644705Y108858D01*
X1661733Y101804D01*
X1680007Y99398D01*
X1698280Y101804D01*
X1715309Y108858D01*
X1729931Y120078D01*
X1733033Y124121D01*
X2140001D01*
X2157559Y127613D01*
X2172444Y137559D01*
X2332443Y297558D01*
X2342389Y312443D01*
X2345882Y330001D01*
Y1453109D01*
X2357349Y1457859D01*
X2370881Y1461093D01*
X2383575Y1452611D01*
X2401133Y1449119D01*
X2935002D01*
X2952561Y1452611D01*
X2967445Y1462557D01*
X3134946Y1630058D01*
X3139999Y1629393D01*
X3158272Y1631799D01*
X3175301Y1638852D01*
X3189923Y1650072D01*
X3201143Y1664695D01*
X3208197Y1681723D01*
X3210603Y1699997D01*
X3208197Y1718270D01*
X3201143Y1735299D01*
X3189923Y1749921D01*
X3175301Y1761141D01*
X3158272Y1768195D01*
X3139999Y1770600D01*
X3121725Y1768195D01*
X3104697Y1761141D01*
X3090074Y1749921D01*
X3078854Y1735299D01*
X3071801Y1718270D01*
X3069395Y1699997D01*
X3070060Y1694944D01*
X2915997Y1540882D01*
X2522881D01*
X2508931Y1556729D01*
X2505019Y1565882D01*
X2506886Y1580059D01*
X2504480Y1598333D01*
X2497427Y1615361D01*
X2486207Y1629984D01*
X2491137Y1654687D01*
X2498191Y1671715D01*
X2500596Y1689989D01*
X2498191Y1708263D01*
X2491137Y1725291D01*
X2479917Y1739913D01*
X2465295Y1751134D01*
X2448266Y1758187D01*
X2429993Y1760593D01*
X2411719Y1758187D01*
X2394691Y1751134D01*
X2394362Y1750881D01*
X2361563D01*
X2360659Y1751061D01*
X1750475D01*
X1749571Y1750881D01*
X785013D01*
X776281Y1749145D01*
X767457Y1747390D01*
X767456Y1747389D01*
X767455Y1747389D01*
X760650Y1742842D01*
X752571Y1737445D01*
X538213Y1523106D01*
X514535Y1534784D01*
X514657Y1535709D01*
X510876Y1564425D01*
X499792Y1591184D01*
X491370Y1602159D01*
X414314Y1525103D01*
X393101Y1546316D01*
X470157Y1623372D01*
X459182Y1631794D01*
X432423Y1642878D01*
X420794Y1644409D01*
X422432Y1669409D01*
X559994D01*
X571699Y1671737D01*
X581623Y1678368D01*
X588253Y1688291D01*
X590581Y1699997D01*
Y1851371D01*
X593571Y1881725D01*
X594102Y1884395D01*
X602956Y1913583D01*
X603998Y1916097D01*
X618377Y1942998D01*
X619888Y1945260D01*
X639237Y1968837D01*
X641166Y1970766D01*
X664741Y1990113D01*
X667005Y1991626D01*
X693903Y2006004D01*
X696421Y2007047D01*
X725607Y2015900D01*
X728278Y2016431D01*
X758632Y2019421D01*
X4007612D01*
Y30588D01*
D02*
G37*
G36*
X2202895Y1523717D02*
X2207000Y1514298D01*
X2205142Y1500180D01*
X2207548Y1481906D01*
X2209096Y1478167D01*
X2196154Y1452218D01*
X2194403Y1451017D01*
X2194170Y1450986D01*
X2177141Y1443933D01*
X2166635Y1435871D01*
X2079989D01*
X2062431Y1432379D01*
X2047546Y1422433D01*
X2030995Y1405882D01*
X1789446D01*
X1781082Y1427129D01*
X1780532Y1430882D01*
X1791139Y1444705D01*
X1798192Y1461734D01*
X1800598Y1480007D01*
X1799933Y1485060D01*
X1854172Y1539298D01*
X2189122D01*
X2202895Y1523717D01*
D02*
G37*
%LPC*%
G36*
X149708Y1006496D02*
X83258Y940047D01*
X94233Y931625D01*
X120992Y920541D01*
X149708Y916760D01*
X178423Y920541D01*
X205182Y931625D01*
X216158Y940046D01*
X149708Y1006496D01*
D02*
G37*
G36*
X403708Y884658D02*
X374992Y880878D01*
X348233Y869794D01*
X325255Y852162D01*
X307623Y829184D01*
X296539Y802425D01*
X292759Y773709D01*
X296539Y744994D01*
X307623Y718235D01*
X325255Y695257D01*
X348233Y677625D01*
X374992Y666541D01*
X403708Y662760D01*
X432423Y666541D01*
X459182Y677625D01*
X482160Y695257D01*
X499792Y718235D01*
X510876Y744994D01*
X514657Y773709D01*
X510876Y802425D01*
X499792Y829184D01*
X482160Y852162D01*
X459182Y869794D01*
X432423Y880878D01*
X403708Y884658D01*
D02*
G37*
G36*
Y630658D02*
X374992Y626878D01*
X348233Y615794D01*
X325255Y598162D01*
X307623Y575184D01*
X296539Y548425D01*
X292759Y519709D01*
X296539Y490994D01*
X307623Y464235D01*
X325255Y441257D01*
X348233Y423625D01*
X374992Y412541D01*
X403708Y408760D01*
X432423Y412541D01*
X459182Y423625D01*
X482160Y441257D01*
X499792Y464235D01*
X510876Y490994D01*
X514657Y519709D01*
X510876Y548425D01*
X499792Y575184D01*
X482160Y598162D01*
X459182Y615794D01*
X432423Y626878D01*
X403708Y630658D01*
D02*
G37*
G36*
X1319987Y480611D02*
X1301714Y478205D01*
X1284685Y471151D01*
X1270063Y459931D01*
X1258843Y445309D01*
X1251789Y428280D01*
X1249383Y410007D01*
X1251789Y391733D01*
X1258843Y374705D01*
X1270063Y360082D01*
X1284685Y348862D01*
X1301714Y341809D01*
X1319987Y339403D01*
X1338261Y341809D01*
X1355289Y348862D01*
X1369912Y360082D01*
X1373014Y364125D01*
X1880179D01*
X1881811Y351728D01*
X1888864Y334700D01*
X1900084Y320077D01*
X1914707Y308857D01*
X1931735Y301804D01*
X1950009Y299398D01*
X1968282Y301804D01*
X1985311Y308857D01*
X1999933Y320077D01*
X2011153Y334700D01*
X2018207Y351728D01*
X2020613Y370002D01*
X2018207Y388275D01*
X2011153Y405304D01*
X1999933Y419926D01*
X1985311Y431146D01*
X1968282Y438200D01*
X1950009Y440606D01*
X1944956Y439940D01*
X1942447Y442450D01*
X1927562Y452396D01*
X1910004Y455888D01*
X1373014D01*
X1369912Y459931D01*
X1355289Y471151D01*
X1338261Y478205D01*
X1319987Y480611D01*
D02*
G37*
%LPD*%
D20*
X2935002Y1495000D02*
X3139999Y1699997D01*
X2470208Y1495000D02*
X2935002D01*
X2360746Y1535388D02*
X2401133Y1495000D01*
X2470208D01*
X2434267Y1578044D02*
X2436282Y1580059D01*
X1835167Y1585180D02*
X2240538D01*
X1729994Y1480007D02*
X1835167Y1585180D01*
X819984Y1645000D02*
X1775148D01*
X1750475Y1705180D02*
X1935255D01*
X1775148Y1645000D02*
X1775327Y1645180D01*
X1960108D01*
X785013Y1705000D02*
X1750295D01*
X1750475Y1705180D01*
X1960108Y1645180D02*
X2215685D01*
X1935255Y1705180D02*
X2190832D01*
X1504853Y1360000D02*
X1686136D01*
X1449853Y1415000D02*
X1504853Y1360000D01*
X2079989Y1389990D02*
X2199996D01*
X2050000Y1360000D02*
X2079989Y1389990D01*
X1686136Y1360000D02*
X2050000D01*
X2300000Y330001D02*
Y1500180D01*
X2114706Y1205000D02*
X2290006D01*
X2300000Y1214994D01*
X2140001Y170002D02*
X2300000Y330001D01*
X2275746Y1500180D02*
X2300000D01*
X2405986Y1575000D02*
X2430000D01*
X2433044Y1578044D02*
X2434267D01*
X2430000Y1575000D02*
X2433044Y1578044D01*
X2360659Y1705180D02*
X2360839Y1705000D01*
X488693Y1408707D02*
X785013Y1705000D01*
X2190832Y1705180D02*
X2360659D01*
X2240538Y1585180D02*
X2310953D01*
X2360746Y1535388D01*
X2335806Y1645180D02*
X2405986Y1575000D01*
X2215685Y1645180D02*
X2335806D01*
X2360839Y1705000D02*
X2414982D01*
X2209836Y1380174D02*
Y1380181D01*
X2199996Y1389990D02*
X2209836Y1380174D01*
X1480003Y1299997D02*
X2139893D01*
X2079718Y1239987D02*
X2114706Y1205000D01*
X2209836Y1380181D02*
X2212443Y1382788D01*
X2139893Y1299997D02*
Y1300105D01*
X2155000Y510007D02*
Y1079853D01*
X2155000Y510007D02*
X2180006D01*
X2155000Y510007D02*
X2155000Y510007D01*
X2085000D02*
Y1065001D01*
X2059991Y510007D02*
X2085000D01*
X2054866Y1179987D02*
X2155000Y1079853D01*
X1300013Y1239987D02*
X1980288D01*
X1230015Y1179987D02*
X2005141D01*
X1140003Y1270000D02*
X1230015Y1179987D01*
X2005141D02*
X2054866D01*
X2029993Y1119988D02*
X2085000Y1065001D01*
X1270000Y1270000D02*
X1300013Y1239987D01*
X1980288D02*
X2079718D01*
X804999Y1475000D02*
X1314878D01*
X619989Y1289990D02*
X804999Y1475000D01*
X759993Y1270000D02*
Y1294993D01*
X880000Y1415000D02*
X1449853D01*
X759993Y1294993D02*
X880000Y1415000D01*
X880008Y1270000D02*
X880105Y1269903D01*
X1314878Y1475000D02*
X1389990Y1550111D01*
X880008Y1289990D02*
X944991Y1355000D01*
X1425000D02*
X1480003Y1299997D01*
X944991Y1355000D02*
X1425000D01*
X2414982Y1705000D02*
X2429993Y1689989D01*
X545000Y1369988D02*
X819984Y1645000D01*
X545000Y1215000D02*
Y1369988D01*
X276708Y1408709D02*
X488691D01*
X484709Y1154709D02*
X545000Y1215000D01*
X276708Y1154709D02*
X484709D01*
X149708Y1535709D02*
X276708Y1408709D01*
X1159993Y1119988D02*
X2029993D01*
X1010006Y1270000D02*
X1159993Y1119988D01*
X149708Y1281709D02*
X276708Y1154709D01*
X1319987Y410007D02*
X1910004D01*
X1950009Y370002D01*
X1680007Y170002D02*
X2140001D01*
X880008Y1270000D02*
Y1289990D01*
X619989Y929996D02*
Y1289990D01*
Y740004D02*
Y929996D01*
Y740004D02*
X794995Y564998D01*
X1464996D02*
X1470000Y570001D01*
X794995Y564998D02*
X1464996D01*
D21*
X149708Y519709D02*
D03*
D22*
X403708Y1281709D02*
D03*
X149708Y1535709D02*
D03*
Y1281709D02*
D03*
X403708Y1027709D02*
D03*
X149708D02*
D03*
X403708Y773709D02*
D03*
X149708D02*
D03*
X403708Y519709D02*
D03*
Y1535709D02*
D03*
D23*
X2436282Y1580059D02*
D03*
X2275746Y1500180D02*
D03*
X2139893Y1300105D02*
D03*
X2212443Y1382788D02*
D03*
X880105Y1269903D02*
D03*
X2429993Y1689989D02*
D03*
X1729994Y1480007D02*
D03*
X1010006Y1270000D02*
D03*
X1270000D02*
D03*
X1140003D02*
D03*
X1969999Y1450010D02*
D03*
X759993Y1270000D02*
D03*
X3599993Y799998D02*
D03*
X2699995D02*
D03*
X1799996D02*
D03*
X1950009Y370002D02*
D03*
X1319987Y410007D02*
D03*
X1680007Y170002D02*
D03*
X3139999Y1699997D02*
D03*
X2180006Y510007D02*
D03*
X2699995Y1199998D02*
D03*
X2059991Y510007D02*
D03*
X619989Y929996D02*
D03*
X1470000Y570001D02*
D03*
X1389990Y1550111D02*
D03*
X3599993Y1199998D02*
D03*
%TF.MD5,ba39a1b64c605e761d780a1dcc02382f*%
M02*
