G04 #@! TF.GenerationSoftware,KiCad,Pcbnew,9.0.1*
G04 #@! TF.CreationDate,2025-11-05T13:06:52+03:00*
G04 #@! TF.ProjectId,rpi-cc2652p-uart,7270692d-6363-4323-9635-32702d756172,rev?*
G04 #@! TF.SameCoordinates,Original*
G04 #@! TF.FileFunction,Paste,Top*
G04 #@! TF.FilePolarity,Positive*
%FSLAX46Y46*%
G04 Gerber Fmt 4.6, Leading zero omitted, Abs format (unit mm)*
G04 Created by KiCad (PCBNEW 9.0.1) date 2025-11-05 13:06:52*
%MOMM*%
%LPD*%
G01*
G04 APERTURE LIST*
%ADD10R,0.550000X1.200000*%
%ADD11R,0.940000X1.800000*%
%ADD12R,1.080000X1.050000*%
%ADD13R,1.500000X1.300000*%
%ADD14R,1.150000X1.050000*%
%ADD15R,0.760000X2.400000*%
%ADD16R,1.000000X0.800000*%
%ADD17R,1.200000X1.100000*%
G04 APERTURE END LIST*
D10*
X136151100Y-107253500D03*
X135201100Y-107253500D03*
X134251100Y-107253500D03*
X134251100Y-109853700D03*
X136151100Y-109853700D03*
D11*
X164971100Y-113353600D03*
X159611100Y-96553600D03*
X158341100Y-96553600D03*
X157071100Y-96553600D03*
X155801100Y-96553600D03*
X154531100Y-96553600D03*
X153261100Y-96553600D03*
X151991100Y-96553600D03*
X150721100Y-96553600D03*
X149451100Y-96553600D03*
X143101100Y-113353600D03*
X144371100Y-113353600D03*
X145641100Y-113353600D03*
X146911100Y-113353600D03*
X148181100Y-113353600D03*
X149451100Y-113353600D03*
X150721100Y-113353600D03*
X151991100Y-113353600D03*
X153261100Y-113353600D03*
X154531100Y-113353600D03*
X155801100Y-113353600D03*
X157071100Y-113353600D03*
X158341100Y-113353600D03*
X159611100Y-113353600D03*
X143101100Y-96553600D03*
X163701100Y-113353600D03*
X148181100Y-96553600D03*
X145641100Y-96553600D03*
X146911100Y-96553600D03*
X144371100Y-96553600D03*
D12*
X140201100Y-96378600D03*
X140201100Y-98128600D03*
D13*
X132501100Y-107603600D03*
X132501100Y-109503600D03*
D14*
X133526100Y-112028600D03*
X133526100Y-113478600D03*
X136876100Y-112028600D03*
X136876100Y-113478600D03*
D15*
X132461100Y-104503600D03*
X132461100Y-100603600D03*
X133731100Y-104503600D03*
X133731100Y-100603600D03*
X135001100Y-104503600D03*
X135001100Y-100603600D03*
X136271100Y-104503600D03*
X136271100Y-100603600D03*
X137541100Y-104503600D03*
X137541100Y-100603600D03*
D16*
X140201100Y-100453600D03*
X140201100Y-102053600D03*
X140201100Y-113553600D03*
X140201100Y-111953600D03*
D14*
X136876100Y-97978600D03*
X136876100Y-96528600D03*
X133526100Y-97978600D03*
X133526100Y-96528600D03*
D17*
X140201100Y-106053600D03*
X140201100Y-103953600D03*
D13*
X137901100Y-107603600D03*
X137901100Y-109503600D03*
M02*
