%TF.GenerationSoftware,Altium Limited,Altium Designer,22.7.1 (60)*%
G04 Layer_Physical_Order=1*
G04 Layer_Color=255*
%FSLAX45Y45*%
%MOMM*%
%TF.SameCoordinates,4B427231-4539-4B88-BEA9-E7C0DB0DE592*%
%TF.FilePolarity,Positive*%
%TF.FileFunction,Copper,L1,Top,Signal*%
%TF.Part,Single*%
G01*
G75*
%TA.AperFunction,SMDPad,CuDef*%
%ADD10R,1.00000X0.80010*%
%ADD11R,1.50012X1.29997*%
%ADD12R,1.19990X1.10007*%
G04:AMPARAMS|DCode=13|XSize=1mm|YSize=1mm|CornerRadius=0.5mm|HoleSize=0mm|Usage=FLASHONLY|Rotation=0.000|XOffset=0mm|YOffset=0mm|HoleType=Round|Shape=RoundedRectangle|*
%AMROUNDEDRECTD13*
21,1,1.00000,0.00000,0,0,0.0*
21,1,0.00000,1.00000,0,0,0.0*
1,1,1.00000,0.00000,0.00000*
1,1,1.00000,0.00000,0.00000*
1,1,1.00000,0.00000,0.00000*
1,1,1.00000,0.00000,0.00000*
%
%ADD13ROUNDEDRECTD13*%
%ADD14R,1.08001X1.05004*%
%ADD15R,0.54991X1.19990*%
%ADD16R,0.94005X1.80010*%
%TA.AperFunction,ConnectorPad*%
%ADD17R,1.15011X1.05004*%
%TA.AperFunction,SMDPad,CuDef*%
%ADD18R,1.15011X1.05004*%
%ADD19R,0.75997X2.40005*%
%TA.AperFunction,Conductor*%
%ADD20C,0.30000*%
%TA.AperFunction,ComponentPad*%
%ADD21R,1.60000X1.60000*%
%ADD22C,1.60000*%
%TA.AperFunction,ViaPad*%
%ADD23C,0.80000*%
G36*
X4007612Y310022D02*
X3803000D01*
Y70013D01*
X4007612D01*
Y30588D01*
X758632D01*
X728277Y33577D01*
X725608Y34108D01*
X696418Y42963D01*
X693906Y44004D01*
X667003Y58384D01*
X664743Y59893D01*
X641164Y79244D01*
X639238Y81170D01*
X619888Y104749D01*
X618377Y107010D01*
X603998Y133912D01*
X602957Y136425D01*
X594102Y165615D01*
X593571Y168283D01*
X590581Y198638D01*
Y350012D01*
X588253Y361717D01*
X581623Y371641D01*
X571699Y378271D01*
X559994Y380600D01*
X54409D01*
X51702Y384709D01*
X52607Y390530D01*
X65171Y409710D01*
X259707D01*
Y564823D01*
X277095Y582210D01*
X283065Y581225D01*
X298569Y553326D01*
X296539Y548425D01*
X292759Y519709D01*
X296539Y490994D01*
X307623Y464235D01*
X325255Y441257D01*
X348233Y423625D01*
X374992Y412541D01*
X403708Y408760D01*
X432423Y412541D01*
X459182Y423625D01*
X482160Y441257D01*
X499792Y464235D01*
X510876Y490994D01*
X514657Y519709D01*
X510876Y548425D01*
X507037Y557693D01*
X522119Y585521D01*
X532825Y587289D01*
X577552Y542562D01*
X592437Y532616D01*
X609995Y529124D01*
X654987D01*
Y480007D01*
X864999D01*
X877504Y460186D01*
Y449984D01*
X992495D01*
Y629118D01*
X1060000D01*
X1066794Y623543D01*
Y472389D01*
X1067496Y468860D01*
Y449984D01*
X1076915D01*
X1085676Y444130D01*
X1097382Y441802D01*
X1217723D01*
X1230073Y416802D01*
X1221047Y405006D01*
X1109977D01*
Y368385D01*
X950013D01*
Y405006D01*
X775002D01*
Y240002D01*
Y192521D01*
X950013D01*
Y240002D01*
Y276622D01*
X1109977D01*
Y240002D01*
Y192521D01*
X1284989D01*
Y240002D01*
Y323791D01*
X1288783Y327878D01*
X1305337Y341332D01*
X1319987Y339403D01*
X1338261Y341809D01*
X1355289Y348862D01*
X1369912Y360082D01*
X1381132Y374705D01*
X1388185Y391733D01*
X1390591Y410007D01*
X1389696Y416801D01*
X1407049Y441802D01*
X1459118D01*
Y400027D01*
X1449995D01*
Y371273D01*
X1449712Y369893D01*
X1449995Y368430D01*
Y265007D01*
X1449994Y260017D01*
Y240007D01*
X1449995Y235017D01*
Y99997D01*
X1609994D01*
Y105190D01*
X1617995Y111120D01*
X1634994Y116309D01*
X1644705Y108858D01*
X1661733Y101804D01*
X1680007Y99398D01*
X1698280Y101804D01*
X1715309Y108858D01*
X1718009Y110929D01*
X1743009Y98601D01*
Y70013D01*
X3548014D01*
Y310022D01*
X2215882D01*
Y449302D01*
X2229930Y460082D01*
X2241150Y474705D01*
X2248204Y491733D01*
X2250610Y510007D01*
X2248204Y528280D01*
X2241150Y545309D01*
X2229930Y559931D01*
X2215308Y571151D01*
X2198279Y578205D01*
X2180006Y580610D01*
X2161732Y578205D01*
X2144704Y571151D01*
X2137223Y565411D01*
X2119998Y561954D01*
X2102774Y565411D01*
X2095293Y571151D01*
X2078264Y578205D01*
X2059991Y580610D01*
X2041717Y578205D01*
X2024689Y571151D01*
X2010066Y559931D01*
X1998846Y545309D01*
X1991793Y528280D01*
X1989387Y510007D01*
X1991793Y491733D01*
X1998846Y474705D01*
X2010066Y460082D01*
X2024689Y448862D01*
X2041717Y441809D01*
X2059119Y439518D01*
Y310022D01*
X2023730D01*
X2011153Y334700D01*
X2018207Y351728D01*
X2020613Y370002D01*
X2018207Y388275D01*
X2011153Y405304D01*
X1999933Y419926D01*
X1985311Y431146D01*
X1968282Y438200D01*
X1950009Y440606D01*
X1931735Y438200D01*
X1914707Y431146D01*
X1902986Y422153D01*
X1894723Y421734D01*
X1894417Y421787D01*
X1874912Y428188D01*
X1869876Y440344D01*
X1857053Y457056D01*
X1840342Y469879D01*
X1820881Y477940D01*
X1799996Y480689D01*
X1779112Y477940D01*
X1759651Y469879D01*
X1742940Y457056D01*
X1730117Y440344D01*
X1722056Y420883D01*
X1719306Y399999D01*
X1722056Y379115D01*
X1730117Y359654D01*
X1742940Y342943D01*
X1753262Y335022D01*
X1745415Y310022D01*
X1743009D01*
Y241404D01*
X1718009Y229075D01*
X1715309Y231147D01*
X1698280Y238200D01*
X1680007Y240606D01*
X1661733Y238200D01*
X1644705Y231147D01*
X1634994Y223696D01*
X1617995Y228885D01*
X1609994Y234814D01*
X1609994Y240007D01*
Y260017D01*
X1609994Y265007D01*
Y400027D01*
X1550882D01*
Y445173D01*
X1559243Y450760D01*
X1565874Y460684D01*
X1568202Y472389D01*
Y637616D01*
X1565874Y649322D01*
X1559243Y659245D01*
X1549320Y665875D01*
X1537614Y668204D01*
X1405004D01*
Y749997D01*
X1299997D01*
Y764997D01*
X1284997D01*
Y859996D01*
X1194992D01*
X1182487Y879816D01*
Y890019D01*
X1044995D01*
Y800024D01*
X1014995D01*
Y890019D01*
X877504D01*
Y879816D01*
X864999Y859996D01*
X774993D01*
Y764997D01*
X759993D01*
Y749997D01*
X654987D01*
Y669999D01*
Y620887D01*
X629000D01*
X570734Y679153D01*
X555849Y689098D01*
X538291Y692591D01*
X511627D01*
X499298Y717591D01*
X499792Y718235D01*
X510876Y744994D01*
X514657Y773709D01*
X510876Y802425D01*
X499792Y829184D01*
X482160Y852162D01*
X459182Y869794D01*
X432423Y880878D01*
X403708Y884658D01*
X374992Y880878D01*
X348233Y869794D01*
X325255Y852162D01*
X307623Y829184D01*
X296539Y802425D01*
X292759Y773709D01*
X296539Y744994D01*
X307623Y718235D01*
X308117Y717591D01*
X295788Y692591D01*
X276708D01*
X259149Y689098D01*
X250525Y683336D01*
X233204Y701829D01*
X245792Y718235D01*
X256876Y744994D01*
X260657Y773709D01*
X256876Y802425D01*
X245792Y829184D01*
X228160Y852162D01*
X205182Y869794D01*
X178423Y880878D01*
X149708Y884658D01*
X120992Y880878D01*
X94233Y869794D01*
X71255Y852162D01*
X55588Y831744D01*
X46907Y831991D01*
X30588Y838813D01*
Y962606D01*
X46907Y969428D01*
X55588Y969674D01*
X62045Y961260D01*
X128495Y1027709D01*
X62045Y1094159D01*
X55588Y1085744D01*
X46907Y1085991D01*
X30588Y1092813D01*
Y1216606D01*
X46907Y1223428D01*
X55588Y1223674D01*
X71255Y1203257D01*
X94233Y1185625D01*
X120992Y1174541D01*
X149708Y1170760D01*
X178423Y1174541D01*
X205182Y1185625D01*
X228160Y1203257D01*
X245792Y1226235D01*
X256876Y1252994D01*
X260657Y1281709D01*
X256876Y1310425D01*
X245792Y1337184D01*
X228160Y1360162D01*
X205182Y1377794D01*
X178423Y1388878D01*
X149708Y1392658D01*
X120992Y1388878D01*
X94233Y1377794D01*
X71255Y1360162D01*
X55588Y1339744D01*
X46907Y1339991D01*
X30588Y1346813D01*
Y1470606D01*
X46907Y1477428D01*
X55588Y1477674D01*
X71255Y1457257D01*
X94233Y1439625D01*
X120992Y1428541D01*
X149708Y1424760D01*
X178423Y1428541D01*
X205182Y1439625D01*
X228160Y1457257D01*
X245792Y1480235D01*
X256876Y1506994D01*
X260657Y1535709D01*
X256876Y1564425D01*
X245792Y1591184D01*
X228160Y1614162D01*
X205182Y1631794D01*
X178423Y1642878D01*
X166794Y1644409D01*
X168432Y1669409D01*
X384983D01*
X386622Y1644409D01*
X374992Y1642878D01*
X348233Y1631794D01*
X337258Y1623372D01*
X403708Y1556922D01*
X470157Y1623372D01*
X459182Y1631794D01*
X432423Y1642878D01*
X420794Y1644409D01*
X422432Y1669409D01*
X559994D01*
X571699Y1671737D01*
X581623Y1678368D01*
X588253Y1688291D01*
X590581Y1699997D01*
Y1851371D01*
X593571Y1881725D01*
X594102Y1884395D01*
X602956Y1913583D01*
X603998Y1916097D01*
X618377Y1942998D01*
X619888Y1945260D01*
X639237Y1968837D01*
X641166Y1970766D01*
X664741Y1990113D01*
X667005Y1991626D01*
X693903Y2006004D01*
X696421Y2007047D01*
X725607Y2015900D01*
X728278Y2016431D01*
X758632Y2019421D01*
X4007612D01*
Y310022D01*
D02*
G37*
G36*
X942630Y742719D02*
X942870Y740559D01*
X955334Y740639D01*
X952880Y740341D01*
X950684Y739483D01*
X948747Y738064D01*
X947067Y736083D01*
X945647Y733542D01*
X944550Y730614D01*
X945812Y726037D01*
X947721Y720828D01*
X950054Y715794D01*
X952812Y710936D01*
X955994Y706254D01*
X959600Y701748D01*
X963631Y697418D01*
X948631Y669991D01*
X944388Y673810D01*
X940146Y676779D01*
X935903Y678901D01*
X931660Y680174D01*
X927418Y680598D01*
X923175Y680174D01*
X918932Y678901D01*
X914690Y676779D01*
X910447Y673810D01*
X906205Y669991D01*
X891205Y697418D01*
X895235Y701748D01*
X898841Y706254D01*
X902023Y710936D01*
X904781Y715794D01*
X907115Y720828D01*
X909024Y726037D01*
X910509Y731422D01*
X911066Y734344D01*
X910758Y735867D01*
X910159Y737821D01*
X909468Y739217D01*
X908684Y740055D01*
X907809Y740334D01*
X911944Y740360D01*
X912206Y742719D01*
X912418Y748631D01*
X942418D01*
X942630Y742719D01*
D02*
G37*
G36*
X855908Y619695D02*
X850831Y614409D01*
X842628Y604533D01*
X839501Y599943D01*
X837025Y595585D01*
X835198Y591458D01*
X834021Y587563D01*
X833494Y583900D01*
X833617Y580468D01*
X834390Y577268D01*
X812273Y639394D01*
X813685Y636834D01*
X815726Y635321D01*
X818397Y634855D01*
X821696Y635436D01*
X825624Y637064D01*
X830181Y639740D01*
X835367Y643462D01*
X841182Y648232D01*
X854699Y660912D01*
X855908Y619695D01*
D02*
G37*
G36*
X685292Y545005D02*
X684992Y547855D01*
X684092Y550405D01*
X682592Y552655D01*
X680492Y554605D01*
X677792Y556255D01*
X674492Y557605D01*
X670592Y558655D01*
X666092Y559405D01*
X660992Y559855D01*
X655292Y560005D01*
Y590005D01*
X660992Y590155D01*
X666092Y590605D01*
X670592Y591355D01*
X674492Y592405D01*
X677792Y593755D01*
X680492Y595405D01*
X682592Y597355D01*
X684092Y599605D01*
X684992Y602155D01*
X685292Y605005D01*
Y545005D01*
D02*
G37*
G36*
X1537614Y472389D02*
X1352301D01*
X1338261Y478205D01*
X1319987Y480611D01*
X1301714Y478205D01*
X1287674Y472389D01*
X1097382D01*
Y637616D01*
X1537614D01*
Y472389D01*
D02*
G37*
G36*
X1520150Y393979D02*
X1520600Y388839D01*
X1521350Y384302D01*
X1522400Y380368D01*
X1523750Y377036D01*
X1525400Y374307D01*
X1527350Y372180D01*
X1529600Y370657D01*
X1532150Y369736D01*
X1535000Y369418D01*
X1480299Y369722D01*
X1482142Y370022D01*
X1483792Y370922D01*
X1485247Y372422D01*
X1486508Y374522D01*
X1487575Y377223D01*
X1488448Y380522D01*
X1489127Y384422D01*
X1489612Y388922D01*
X1490000Y399722D01*
X1520000D01*
X1520150Y393979D01*
D02*
G37*
G36*
X1140587Y292504D02*
X1140284Y295354D01*
X1139375Y297904D01*
X1137860Y300154D01*
X1135738Y302104D01*
X1133011Y303754D01*
X1129677Y305104D01*
X1125738Y306154D01*
X1121192Y306904D01*
X1116040Y307354D01*
X1110282Y307504D01*
Y337504D01*
X1116040Y337654D01*
X1121192Y338104D01*
X1125738Y338854D01*
X1129677Y339904D01*
X1133011Y341254D01*
X1135738Y342904D01*
X1137860Y344854D01*
X1139375Y347104D01*
X1140284Y349654D01*
X1140587Y352504D01*
Y292504D01*
D02*
G37*
G36*
X919707Y349654D02*
X920616Y347104D01*
X922131Y344854D01*
X924253Y342904D01*
X926980Y341254D01*
X930314Y339904D01*
X934253Y338854D01*
X938799Y338104D01*
X943951Y337654D01*
X949709Y337504D01*
Y307504D01*
X943951Y307354D01*
X938799Y306904D01*
X934253Y306154D01*
X930314Y305104D01*
X926980Y303754D01*
X924253Y302104D01*
X922131Y300154D01*
X920616Y297904D01*
X919707Y295354D01*
X919404Y292504D01*
Y352504D01*
X919707Y349654D01*
D02*
G37*
G36*
X2185150Y303978D02*
X2185600Y298840D01*
X2186350Y294304D01*
X2187400Y290371D01*
X2188750Y287039D01*
X2190400Y284310D01*
X2192350Y282182D01*
X2194600Y280657D01*
X2197150Y279734D01*
X2200000Y279413D01*
X2154314Y279718D01*
X2154444Y280017D01*
X2154561Y280917D01*
X2154664Y282418D01*
X2154993Y304017D01*
X2155000Y309717D01*
X2185000D01*
X2185150Y303978D01*
D02*
G37*
G36*
X2120709Y279718D02*
X2075000Y279413D01*
X2077850Y279734D01*
X2080400Y280657D01*
X2082650Y282182D01*
X2084600Y284310D01*
X2086250Y287039D01*
X2087600Y290371D01*
X2088650Y294304D01*
X2089400Y298840D01*
X2089850Y303978D01*
X2090000Y309717D01*
X2120000D01*
X2120709Y279718D01*
D02*
G37*
%LPC*%
G36*
X1613995Y1970001D02*
X1544994D01*
Y1902499D01*
X1613995D01*
Y1970001D01*
D02*
G37*
G36*
X1514994D02*
X1445994D01*
Y1902499D01*
X1514994D01*
Y1970001D01*
D02*
G37*
G36*
X1284989Y1954990D02*
X1212483D01*
Y1887488D01*
X1284989D01*
Y1954990D01*
D02*
G37*
G36*
X950013D02*
X877508D01*
Y1887488D01*
X950013D01*
Y1954990D01*
D02*
G37*
G36*
X1182483D02*
X1109977D01*
Y1887488D01*
X1182483D01*
Y1954990D01*
D02*
G37*
G36*
X847508D02*
X775002D01*
Y1887488D01*
X847508D01*
Y1954990D01*
D02*
G37*
G36*
X1805012Y1990004D02*
X1743009D01*
Y1884999D01*
X1805012D01*
Y1990004D01*
D02*
G37*
G36*
X3548014D02*
X1835012D01*
Y1869999D01*
X1820012D01*
Y1854999D01*
X1743009D01*
Y1758375D01*
X1631672D01*
X1613995Y1776053D01*
X1613995Y1794995D01*
X1613995Y1819995D01*
Y1872499D01*
X1529994D01*
X1445994D01*
Y1819995D01*
X1445994Y1804998D01*
X1445994Y1779997D01*
Y1694492D01*
X1439790Y1687196D01*
X1370287Y1617717D01*
X1357004Y1612215D01*
X1332004Y1614999D01*
X1332004D01*
X1309887Y1621959D01*
Y1670990D01*
X1306395Y1688548D01*
X1296449Y1703433D01*
X1285000Y1714882D01*
Y1825000D01*
X1284989D01*
Y1857488D01*
X1197483D01*
X1109977D01*
Y1825000D01*
X950013D01*
Y1857488D01*
X862508D01*
X775002D01*
Y1789986D01*
Y1645003D01*
Y1614998D01*
X688007D01*
Y1314994D01*
X688007D01*
X692508Y1289994D01*
X691795Y1288274D01*
X689390Y1270000D01*
X691795Y1251726D01*
X692508Y1250006D01*
X688007Y1225006D01*
X688007D01*
Y996144D01*
X682552Y991252D01*
X667667Y981643D01*
X655291Y991140D01*
X638262Y998194D01*
X619989Y1000599D01*
X601715Y998194D01*
X584687Y991140D01*
X570064Y979920D01*
X558844Y965298D01*
X551791Y948269D01*
X549385Y929996D01*
X551791Y911722D01*
X558844Y894694D01*
X570064Y880071D01*
X584687Y868851D01*
X601715Y861798D01*
X619989Y859392D01*
X630299Y860749D01*
X649389Y848404D01*
X654987Y841666D01*
Y779997D01*
X744993D01*
Y859996D01*
X696890D01*
X694428Y884996D01*
X707554Y887607D01*
X722439Y897552D01*
X749888Y925002D01*
X868006D01*
Y1075004D01*
X898006D01*
Y925002D01*
X995006D01*
Y1075004D01*
X1025006D01*
Y925002D01*
X1332004D01*
Y1225006D01*
X1332004Y1225006D01*
X1336683Y1248068D01*
X1338198Y1251726D01*
X1340604Y1270000D01*
X1338198Y1288274D01*
X1337157Y1290788D01*
X1332004Y1314994D01*
X1332004D01*
X1332004Y1314994D01*
Y1474860D01*
X1347810Y1484690D01*
X1357004Y1488007D01*
X1371716Y1481913D01*
X1389990Y1479507D01*
X1408263Y1481913D01*
X1417347Y1485676D01*
X1437163Y1472846D01*
X1439999Y1468996D01*
X1440000Y965000D01*
Y934988D01*
X1529994D01*
X1619989D01*
Y1004992D01*
X1619989D01*
Y1044992D01*
X1619989D01*
Y1214999D01*
X1619989D01*
Y1434126D01*
X1676967D01*
X1680070Y1430083D01*
X1694692Y1418863D01*
X1711720Y1411809D01*
X1729994Y1409403D01*
X1748268Y1411809D01*
X1765296Y1418863D01*
X1779918Y1430083D01*
X1791139Y1444705D01*
X1798192Y1461734D01*
X1800598Y1480007D01*
X1798192Y1498281D01*
X1791139Y1515309D01*
X1779918Y1529932D01*
X1765296Y1541152D01*
X1748268Y1548205D01*
X1729994Y1550611D01*
X1711720Y1548205D01*
X1694692Y1541152D01*
X1680070Y1529932D01*
X1676967Y1525889D01*
X1609994D01*
Y1550012D01*
X1460681D01*
X1460593Y1550111D01*
X1458188Y1568385D01*
X1456005Y1573655D01*
X1504876Y1622509D01*
X1509595Y1626893D01*
X1513225Y1629802D01*
X1513495Y1629992D01*
X1613995D01*
Y1666612D01*
X1892503D01*
X1910061Y1670104D01*
X1924946Y1680050D01*
X1962443Y1717547D01*
X1972389Y1732432D01*
X1975881Y1749990D01*
Y1749994D01*
X2044118D01*
Y1740000D01*
X2047611Y1722442D01*
X2057557Y1707557D01*
X2069119Y1695995D01*
Y1299998D01*
X2069665Y1297252D01*
X2071695Y1281832D01*
X2078748Y1264803D01*
X2089968Y1250181D01*
X2104591Y1238961D01*
X2121619Y1231907D01*
X2139893Y1229501D01*
X2158166Y1231907D01*
X2175195Y1238961D01*
X2189817Y1250181D01*
X2201038Y1264803D01*
X2208091Y1281832D01*
X2210497Y1300105D01*
X2230717Y1314590D01*
X2247745Y1321643D01*
X2262368Y1332863D01*
X2273588Y1347486D01*
X2280641Y1364514D01*
X2283047Y1382788D01*
X2280641Y1401061D01*
X2279092Y1404801D01*
X2292035Y1430749D01*
X2293786Y1431951D01*
X2294019Y1431982D01*
X2311047Y1439035D01*
X2325670Y1450255D01*
X2336890Y1464878D01*
X2343943Y1481906D01*
X2346349Y1500180D01*
X2343943Y1518453D01*
X2336890Y1535482D01*
X2325670Y1550104D01*
X2311047Y1561325D01*
X2300882Y1565535D01*
Y1690995D01*
X2332443Y1722557D01*
X2337981Y1730844D01*
X2344279Y1731305D01*
X2361795Y1708262D01*
X2359389Y1689989D01*
X2361795Y1671715D01*
X2368848Y1654687D01*
X2380068Y1640065D01*
X2375137Y1615361D01*
X2368084Y1598333D01*
X2365678Y1580059D01*
X2368084Y1561786D01*
X2375137Y1544757D01*
X2386358Y1530135D01*
X2400980Y1518915D01*
X2418009Y1511861D01*
X2436282Y1509455D01*
X2454556Y1511861D01*
X2471584Y1518915D01*
X2486207Y1530135D01*
X2497427Y1544757D01*
X2504480Y1561786D01*
X2506422Y1576536D01*
X2582443Y1652557D01*
X2592389Y1667442D01*
X2595882Y1685000D01*
Y1749994D01*
X3058880D01*
X3062240Y1747522D01*
X3074586Y1724994D01*
X3071801Y1718270D01*
X3069395Y1699997D01*
X3071801Y1681723D01*
X3078854Y1664695D01*
X3090074Y1650072D01*
X3104697Y1638852D01*
X3121725Y1631799D01*
X3139999Y1629393D01*
X3158272Y1631799D01*
X3175301Y1638852D01*
X3189923Y1650072D01*
X3201143Y1664695D01*
X3208197Y1681723D01*
X3210407Y1698508D01*
X3222443Y1710544D01*
X3232389Y1725429D01*
X3235882Y1742987D01*
Y1749994D01*
X3548014D01*
Y1990004D01*
D02*
G37*
G36*
X316045Y1602159D02*
X307623Y1591184D01*
X296539Y1564425D01*
X292759Y1535709D01*
X296539Y1506994D01*
X307623Y1480235D01*
X316045Y1469260D01*
X382495Y1535709D01*
X316045Y1602159D01*
D02*
G37*
G36*
X491370D02*
X424921Y1535709D01*
X491371Y1469259D01*
X499792Y1480235D01*
X510876Y1506994D01*
X514657Y1535709D01*
X510876Y1564425D01*
X499792Y1591184D01*
X491370Y1602159D01*
D02*
G37*
G36*
X403708Y1514496D02*
X337258Y1448047D01*
X348233Y1439625D01*
X374992Y1428541D01*
X403708Y1424760D01*
X432423Y1428541D01*
X459182Y1439625D01*
X470158Y1448046D01*
X403708Y1514496D01*
D02*
G37*
G36*
Y1392658D02*
X374992Y1388878D01*
X348233Y1377794D01*
X325255Y1360162D01*
X307623Y1337184D01*
X296539Y1310425D01*
X292759Y1281709D01*
X296539Y1252994D01*
X307623Y1226235D01*
X325255Y1203257D01*
X348233Y1185625D01*
X374992Y1174541D01*
X403708Y1170760D01*
X432423Y1174541D01*
X459182Y1185625D01*
X482160Y1203257D01*
X499792Y1226235D01*
X510876Y1252994D01*
X514657Y1281709D01*
X510876Y1310425D01*
X499792Y1337184D01*
X482160Y1360162D01*
X459182Y1377794D01*
X432423Y1388878D01*
X403708Y1392658D01*
D02*
G37*
G36*
X149708Y1138658D02*
X120992Y1134878D01*
X94233Y1123794D01*
X83258Y1115372D01*
X149708Y1048922D01*
X216157Y1115372D01*
X205182Y1123794D01*
X178423Y1134878D01*
X149708Y1138658D01*
D02*
G37*
G36*
X237370Y1094159D02*
X170921Y1027709D01*
X237371Y961259D01*
X245792Y972235D01*
X256876Y998994D01*
X260657Y1027709D01*
X256876Y1056425D01*
X245792Y1083184D01*
X237370Y1094159D01*
D02*
G37*
G36*
X403708Y1138658D02*
X374992Y1134878D01*
X348233Y1123794D01*
X325255Y1106162D01*
X307623Y1083184D01*
X296539Y1056425D01*
X292759Y1027709D01*
X296539Y998994D01*
X307623Y972235D01*
X325255Y949257D01*
X348233Y931625D01*
X374992Y920541D01*
X403708Y916760D01*
X432423Y920541D01*
X459182Y931625D01*
X482160Y949257D01*
X499792Y972235D01*
X510876Y998994D01*
X514657Y1027709D01*
X510876Y1056425D01*
X499792Y1083184D01*
X482160Y1106162D01*
X459182Y1123794D01*
X432423Y1134878D01*
X403708Y1138658D01*
D02*
G37*
G36*
X149708Y1006496D02*
X83258Y940047D01*
X94233Y931625D01*
X120992Y920541D01*
X149708Y916760D01*
X178423Y920541D01*
X205182Y931625D01*
X216158Y940046D01*
X149708Y1006496D01*
D02*
G37*
G36*
X1619989Y904988D02*
X1544994D01*
Y834984D01*
X1619989D01*
Y904988D01*
D02*
G37*
G36*
X1514994D02*
X1440000D01*
Y834984D01*
X1514994D01*
Y904988D01*
D02*
G37*
G36*
X1314997Y859996D02*
Y779997D01*
X1405004D01*
Y859996D01*
X1314997D01*
D02*
G37*
G36*
X1284989Y162521D02*
X1212483D01*
Y95019D01*
X1284989D01*
Y162521D01*
D02*
G37*
G36*
X1182483D02*
X1109977D01*
Y95019D01*
X1182483D01*
Y162521D01*
D02*
G37*
G36*
X950013D02*
X877508D01*
Y95019D01*
X950013D01*
Y162521D01*
D02*
G37*
G36*
X847508D02*
X775002D01*
Y95019D01*
X847508D01*
Y162521D01*
D02*
G37*
%LPD*%
G36*
X2323342Y1780335D02*
X2321591Y1779557D01*
X2320046Y1778269D01*
X2318708Y1776473D01*
X2317575Y1774167D01*
X2316648Y1771352D01*
X2315927Y1768028D01*
X2315412Y1764194D01*
X2315103Y1759852D01*
X2315000Y1755000D01*
X2285000D01*
X2284963Y1759807D01*
X2284078Y1773974D01*
X2283673Y1776251D01*
X2283194Y1778022D01*
X2282641Y1779287D01*
X2282014Y1780046D01*
X2281314Y1780299D01*
X2325299Y1780604D01*
X2323342Y1780335D01*
D02*
G37*
G36*
X2577150Y1780282D02*
X2574600Y1779359D01*
X2572350Y1777833D01*
X2570400Y1775706D01*
X2568750Y1772976D01*
X2567400Y1769645D01*
X2566350Y1765711D01*
X2565600Y1761176D01*
X2565150Y1756038D01*
X2565000Y1750299D01*
X2535000D01*
X2535314Y1780299D01*
X2580000Y1780604D01*
X2577150Y1780282D01*
D02*
G37*
G36*
X2212150Y1780300D02*
X2209600Y1779391D01*
X2207350Y1777876D01*
X2205400Y1775755D01*
X2203750Y1773027D01*
X2202400Y1769694D01*
X2201350Y1765754D01*
X2200600Y1761209D01*
X2200150Y1756057D01*
X2200000Y1750299D01*
X2170000D01*
X2169850Y1756057D01*
X2169400Y1761209D01*
X2168650Y1765754D01*
X2167600Y1769694D01*
X2166250Y1773027D01*
X2164600Y1775755D01*
X2162650Y1777876D01*
X2160400Y1779391D01*
X2157850Y1780300D01*
X2155000Y1780604D01*
X2215000D01*
X2212150Y1780300D01*
D02*
G37*
G36*
X1140587Y1697505D02*
X1140284Y1700355D01*
X1139375Y1702905D01*
X1137860Y1705155D01*
X1135738Y1707105D01*
X1133011Y1708755D01*
X1129677Y1710105D01*
X1125738Y1711155D01*
X1121192Y1711905D01*
X1116040Y1712355D01*
X1110282Y1712505D01*
Y1742505D01*
X1116040Y1742655D01*
X1121192Y1743105D01*
X1125738Y1743855D01*
X1129677Y1744905D01*
X1133011Y1746255D01*
X1135738Y1747905D01*
X1137860Y1749855D01*
X1139375Y1752105D01*
X1140284Y1754655D01*
X1140587Y1757505D01*
Y1697505D01*
D02*
G37*
G36*
X919707Y1754655D02*
X920616Y1752105D01*
X922131Y1749855D01*
X924253Y1747905D01*
X926980Y1746255D01*
X930314Y1744905D01*
X934253Y1743855D01*
X938799Y1743105D01*
X943951Y1742655D01*
X949709Y1742505D01*
Y1712505D01*
X943951Y1712355D01*
X938799Y1711905D01*
X934253Y1711155D01*
X930314Y1710105D01*
X926980Y1708755D01*
X924253Y1707105D01*
X922131Y1705155D01*
X920616Y1702905D01*
X919707Y1700355D01*
X919404Y1697505D01*
Y1757505D01*
X919707Y1754655D01*
D02*
G37*
G36*
X1583688Y1739643D02*
X1584597Y1737093D01*
X1586113Y1734843D01*
X1588234Y1732893D01*
X1590962Y1731243D01*
X1594295Y1729893D01*
X1598235Y1728843D01*
X1602780Y1728093D01*
X1607932Y1727643D01*
X1613690Y1727493D01*
Y1697493D01*
X1607932Y1697343D01*
X1602780Y1696893D01*
X1598235Y1696143D01*
X1594295Y1695093D01*
X1590962Y1693743D01*
X1588234Y1692093D01*
X1586113Y1690143D01*
X1584597Y1687894D01*
X1583688Y1685343D01*
X1583385Y1682493D01*
Y1742493D01*
X1583688Y1739643D01*
D02*
G37*
G36*
X1520213Y1660601D02*
X1517840Y1662201D01*
X1515052Y1662968D01*
X1511848Y1662901D01*
X1508228Y1662000D01*
X1504193Y1660265D01*
X1499741Y1657697D01*
X1494874Y1654295D01*
X1489592Y1650059D01*
X1477779Y1639087D01*
X1455082Y1658817D01*
X1461119Y1665061D01*
X1470604Y1676215D01*
X1474051Y1681124D01*
X1476635Y1685588D01*
X1478355Y1689608D01*
X1479212Y1693182D01*
X1479206Y1696312D01*
X1478337Y1698996D01*
X1476604Y1701236D01*
X1520213Y1660601D01*
D02*
G37*
G36*
X1279156Y1608935D02*
X1279606Y1603783D01*
X1280356Y1599238D01*
X1281406Y1595298D01*
X1282756Y1591965D01*
X1284406Y1589237D01*
X1286356Y1587116D01*
X1288605Y1585601D01*
X1291156Y1584692D01*
X1294006Y1584389D01*
X1234006D01*
X1236856Y1584692D01*
X1239406Y1585601D01*
X1241656Y1587116D01*
X1243606Y1589237D01*
X1245256Y1591965D01*
X1246606Y1595298D01*
X1247656Y1599238D01*
X1248406Y1603783D01*
X1248856Y1608935D01*
X1249006Y1614693D01*
X1279006D01*
X1279156Y1608935D01*
D02*
G37*
G36*
X1579688Y1507157D02*
X1580597Y1504607D01*
X1582112Y1502357D01*
X1584234Y1500407D01*
X1586961Y1498757D01*
X1590295Y1497407D01*
X1594234Y1496357D01*
X1598780Y1495607D01*
X1603932Y1495157D01*
X1609689Y1495007D01*
Y1465007D01*
X1603932Y1464857D01*
X1598780Y1464407D01*
X1594234Y1463657D01*
X1590295Y1462607D01*
X1586961Y1461257D01*
X1584234Y1459607D01*
X1582112Y1457657D01*
X1580597Y1455407D01*
X1579688Y1452857D01*
X1579385Y1450007D01*
Y1510007D01*
X1579688Y1507157D01*
D02*
G37*
G36*
X1557144Y1280289D02*
X1554594Y1279380D01*
X1552344Y1277864D01*
X1550394Y1275743D01*
X1548744Y1273015D01*
X1547394Y1269682D01*
X1546344Y1265742D01*
X1545594Y1261197D01*
X1545144Y1256045D01*
X1544994Y1250287D01*
X1514994D01*
X1514844Y1256045D01*
X1514394Y1261197D01*
X1513644Y1265742D01*
X1512594Y1269682D01*
X1511244Y1273015D01*
X1509594Y1275743D01*
X1507644Y1277864D01*
X1505394Y1279380D01*
X1502844Y1280289D01*
X1499994Y1280592D01*
X1559994D01*
X1557144Y1280289D01*
D02*
G37*
G36*
X1545144Y1208936D02*
X1545594Y1203784D01*
X1546344Y1199239D01*
X1547394Y1195299D01*
X1548744Y1191966D01*
X1550394Y1189238D01*
X1552344Y1187117D01*
X1554594Y1185601D01*
X1557144Y1184692D01*
X1559994Y1184389D01*
X1499994D01*
X1502844Y1184692D01*
X1505394Y1185601D01*
X1507644Y1187117D01*
X1509594Y1189238D01*
X1511244Y1191966D01*
X1512594Y1195299D01*
X1513644Y1199239D01*
X1514394Y1203784D01*
X1514844Y1208936D01*
X1514994Y1214694D01*
X1544994D01*
X1545144Y1208936D01*
D02*
G37*
D10*
X1529994Y170002D02*
D03*
Y330022D02*
D03*
Y1480007D02*
D03*
Y1319987D02*
D03*
D11*
X1299997Y764997D02*
D03*
Y575005D02*
D03*
X759993Y764997D02*
D03*
Y575005D02*
D03*
D12*
X1529994Y1129995D02*
D03*
Y919988D02*
D03*
D13*
X1799996Y399999D02*
D03*
X4599991D02*
D03*
Y1699997D02*
D03*
D14*
X1529994Y1712493D02*
D03*
Y1887499D02*
D03*
D15*
X1124991Y539979D02*
D03*
X934999D02*
D03*
Y800024D02*
D03*
X1029995D02*
D03*
X1124991D02*
D03*
D16*
X3471012Y190017D02*
D03*
Y1869999D02*
D03*
X4007002Y190017D02*
D03*
X3880002D02*
D03*
X3344012D02*
D03*
X3217012D02*
D03*
X3090012D02*
D03*
X2963012D02*
D03*
X2836012D02*
D03*
X2709012D02*
D03*
X2582012D02*
D03*
X2455012D02*
D03*
X2328012D02*
D03*
X2201012D02*
D03*
X2074012D02*
D03*
X1947012D02*
D03*
X1820012D02*
D03*
X3344012Y1869999D02*
D03*
X3217012D02*
D03*
X3090012D02*
D03*
X2963012D02*
D03*
X2836012D02*
D03*
X2709012D02*
D03*
X2582012D02*
D03*
X2455012D02*
D03*
X2328012D02*
D03*
X2201012D02*
D03*
X2074012D02*
D03*
X1947012D02*
D03*
X1820012D02*
D03*
D17*
X1197483Y322504D02*
D03*
Y177521D02*
D03*
X862508D02*
D03*
Y322504D02*
D03*
D18*
Y1727505D02*
D03*
Y1872488D02*
D03*
X1197483D02*
D03*
Y1727505D02*
D03*
D19*
X1264006Y1464996D02*
D03*
Y1075004D02*
D03*
X1137006Y1464996D02*
D03*
Y1075004D02*
D03*
X1010006Y1464996D02*
D03*
Y1075004D02*
D03*
X883006Y1464996D02*
D03*
Y1075004D02*
D03*
X756006Y1464996D02*
D03*
Y1075004D02*
D03*
D20*
X1930000Y1749990D02*
Y1852987D01*
X1892503Y1712493D02*
X1930000Y1749990D01*
Y1852987D02*
X1947012Y1869999D01*
X1389990Y1550111D02*
Y1572538D01*
X1529994Y1712493D01*
X2434267Y1578044D02*
X2436282Y1580059D01*
X2185000Y1380008D02*
Y1853987D01*
X2434267Y1575000D02*
X2440000D01*
X2434267D02*
Y1578044D01*
X2255000Y1500180D02*
X2275746D01*
X2255000D02*
Y1710000D01*
X2210003Y1380348D02*
X2212443Y1382788D01*
X2210003Y1380007D02*
Y1380348D01*
X2139893Y1299997D02*
Y1300105D01*
X2115000Y1299997D02*
X2139893D01*
X880008Y1270000D02*
X880105Y1269903D01*
X2440000Y1575000D02*
X2550000Y1685000D01*
X2429993Y1689989D02*
Y1844980D01*
X1529994Y1480007D02*
X1729994D01*
X2185000Y1380007D02*
X2210003D01*
X3147009Y1699997D02*
X3190000Y1742987D01*
Y1842987D01*
X3217012Y1869999D01*
X3139999Y1699997D02*
X3147009D01*
X2550000Y1837987D02*
X2582012Y1869999D01*
X2550000Y1685000D02*
Y1837987D01*
X2429993Y1844980D02*
X2455012Y1869999D01*
X2115000Y1299998D02*
Y1715000D01*
Y1299998D02*
X2115000Y1299997D01*
X2185000Y1380008D02*
X2185000Y1380007D01*
X2185000Y1853987D02*
X2201012Y1869999D01*
X2090000Y1740000D02*
X2115000Y1715000D01*
X2074012Y1869999D02*
X2090000Y1854011D01*
Y1740000D02*
Y1854011D01*
X2255000Y1710000D02*
X2300000Y1755000D01*
Y1841987D02*
X2328012Y1869999D01*
X2300000Y1755000D02*
Y1841987D01*
X2170000Y220984D02*
X2201012Y189992D01*
X2170000Y500001D02*
X2180006Y510007D01*
X2170000Y220984D02*
Y500001D01*
X2059991Y510007D02*
X2105000Y464997D01*
X2074012Y189992D02*
X2105000Y220981D01*
Y464997D01*
X1505000Y354991D02*
X1529994Y329997D01*
X1470000Y570001D02*
X1505000Y535001D01*
Y354991D02*
Y535001D01*
X1197508Y322504D02*
X1212504D01*
X1300007Y410007D02*
X1319987D01*
X1212504Y322504D02*
X1300007Y410007D01*
X927418Y712418D02*
X964836Y675000D01*
X1060000D02*
X1124991Y739991D01*
X964836Y675000D02*
X1060000D01*
X790005Y575005D02*
X927418Y712418D01*
Y792442D01*
X934999Y800024D01*
X1124991Y739991D02*
Y799998D01*
X759993Y575005D02*
X790005D01*
X619989Y929996D02*
X689996D01*
X756006Y996006D02*
Y1075004D01*
X689996Y929996D02*
X756006Y996006D01*
X276708Y646709D02*
X538291D01*
X609995Y575005D02*
X759993D01*
X538291Y646709D02*
X609995Y575005D01*
X149708Y519709D02*
X276708Y646709D01*
X1529994Y1712493D02*
X1892503D01*
X1529994Y1129995D02*
Y1319987D01*
X1950009Y177013D02*
Y370002D01*
X1947012Y189992D02*
X1950009Y177013D01*
X1529994Y170002D02*
X1680007D01*
X1264006Y1275994D02*
X1270000Y1270000D01*
X1264006Y1464996D02*
Y1670990D01*
Y1275994D02*
Y1464996D01*
X1207491Y1727505D02*
X1264006Y1670990D01*
X1197508Y1727505D02*
X1207491D01*
X1137006Y1272997D02*
X1140003Y1270000D01*
X1137006Y1272997D02*
Y1464996D01*
X862508Y1727505D02*
X1197508D01*
X1010006Y1270000D02*
Y1464996D01*
X883006Y1272997D02*
Y1464996D01*
X880008Y1270000D02*
X883006Y1272997D01*
X862508Y322504D02*
X1197508D01*
X756006Y1273988D02*
X759993Y1270000D01*
X756006Y1273988D02*
Y1464996D01*
D21*
X149708Y519709D02*
D03*
D22*
X403708Y1281709D02*
D03*
X149708Y1535709D02*
D03*
Y1281709D02*
D03*
X403708Y1027709D02*
D03*
X149708D02*
D03*
X403708Y773709D02*
D03*
X149708D02*
D03*
X403708Y519709D02*
D03*
Y1535709D02*
D03*
D23*
X2436282Y1580059D02*
D03*
X2275746Y1500180D02*
D03*
X2139893Y1300105D02*
D03*
X2212443Y1382788D02*
D03*
X880105Y1269903D02*
D03*
X2429993Y1689989D02*
D03*
X1729994Y1480007D02*
D03*
X1010006Y1270000D02*
D03*
X1270000D02*
D03*
X1140003D02*
D03*
X1969999Y1450010D02*
D03*
X759993Y1270000D02*
D03*
X3599993Y799998D02*
D03*
X2699995D02*
D03*
X1799996D02*
D03*
X1950009Y370002D02*
D03*
X1319987Y410007D02*
D03*
X1680007Y170002D02*
D03*
X3139999Y1699997D02*
D03*
X2180006Y510007D02*
D03*
X2699995Y1199998D02*
D03*
X2059991Y510007D02*
D03*
X619989Y929996D02*
D03*
X1470000Y570001D02*
D03*
X1389990Y1550111D02*
D03*
X3599993Y1199998D02*
D03*
%TF.MD5,d4c60d8ee71d43ae9cf4bb93e82ecfad*%
M02*
