G04 #@! TF.GenerationSoftware,KiCad,Pcbnew,9.0.1*
G04 #@! TF.CreationDate,2025-11-05T13:06:52+03:00*
G04 #@! TF.ProjectId,rpi-cc2652p-uart,7270692d-6363-4323-9635-32702d756172,rev?*
G04 #@! TF.SameCoordinates,Original*
G04 #@! TF.FileFunction,Legend,Top*
G04 #@! TF.FilePolarity,Positive*
%FSLAX46Y46*%
G04 Gerber Fmt 4.6, Leading zero omitted, Abs format (unit mm)*
G04 Created by KiCad (PCBNEW 9.0.1) date 2025-11-05 13:06:52*
%MOMM*%
%LPD*%
G01*
G04 APERTURE LIST*
%ADD10C,0.081280*%
%ADD11C,0.029911*%
%ADD12C,0.074778*%
%ADD13C,0.093472*%
%ADD14C,0.059822*%
%ADD15C,0.127500*%
%ADD16C,0.068000*%
%ADD17C,0.048768*%
%ADD18C,0.203200*%
%ADD19C,0.127000*%
%ADD20C,0.200000*%
%ADD21C,0.100000*%
G04 APERTURE END LIST*
D10*
X163280842Y-96181792D02*
X163458884Y-96181792D01*
X163458884Y-96181792D02*
X163547905Y-96137282D01*
X163547905Y-96137282D02*
X163592416Y-96092771D01*
X163592416Y-96092771D02*
X163681437Y-95959240D01*
X163681437Y-95959240D02*
X163725947Y-95781198D01*
X163725947Y-95781198D02*
X163725947Y-95425114D01*
X163725947Y-95425114D02*
X163681437Y-95336093D01*
X163681437Y-95336093D02*
X163636926Y-95291582D01*
X163636926Y-95291582D02*
X163547905Y-95247072D01*
X163547905Y-95247072D02*
X163369863Y-95247072D01*
X163369863Y-95247072D02*
X163280842Y-95291582D01*
X163280842Y-95291582D02*
X163236332Y-95336093D01*
X163236332Y-95336093D02*
X163191821Y-95425114D01*
X163191821Y-95425114D02*
X163191821Y-95647666D01*
X163191821Y-95647666D02*
X163236332Y-95736687D01*
X163236332Y-95736687D02*
X163280842Y-95781198D01*
X163280842Y-95781198D02*
X163369863Y-95825708D01*
X163369863Y-95825708D02*
X163547905Y-95825708D01*
X163547905Y-95825708D02*
X163636926Y-95781198D01*
X163636926Y-95781198D02*
X163681437Y-95736687D01*
X163681437Y-95736687D02*
X163725947Y-95647666D01*
X164304584Y-95247072D02*
X164393605Y-95247072D01*
X164393605Y-95247072D02*
X164482626Y-95291582D01*
X164482626Y-95291582D02*
X164527136Y-95336093D01*
X164527136Y-95336093D02*
X164571647Y-95425114D01*
X164571647Y-95425114D02*
X164616157Y-95603156D01*
X164616157Y-95603156D02*
X164616157Y-95825708D01*
X164616157Y-95825708D02*
X164571647Y-96003750D01*
X164571647Y-96003750D02*
X164527136Y-96092771D01*
X164527136Y-96092771D02*
X164482626Y-96137282D01*
X164482626Y-96137282D02*
X164393605Y-96181792D01*
X164393605Y-96181792D02*
X164304584Y-96181792D01*
X164304584Y-96181792D02*
X164215563Y-96137282D01*
X164215563Y-96137282D02*
X164171052Y-96092771D01*
X164171052Y-96092771D02*
X164126542Y-96003750D01*
X164126542Y-96003750D02*
X164082031Y-95825708D01*
X164082031Y-95825708D02*
X164082031Y-95603156D01*
X164082031Y-95603156D02*
X164126542Y-95425114D01*
X164126542Y-95425114D02*
X164171052Y-95336093D01*
X164171052Y-95336093D02*
X164215563Y-95291582D01*
X164215563Y-95291582D02*
X164304584Y-95247072D01*
X165194794Y-95247072D02*
X165283815Y-95247072D01*
X165283815Y-95247072D02*
X165372836Y-95291582D01*
X165372836Y-95291582D02*
X165417346Y-95336093D01*
X165417346Y-95336093D02*
X165461857Y-95425114D01*
X165461857Y-95425114D02*
X165506367Y-95603156D01*
X165506367Y-95603156D02*
X165506367Y-95825708D01*
X165506367Y-95825708D02*
X165461857Y-96003750D01*
X165461857Y-96003750D02*
X165417346Y-96092771D01*
X165417346Y-96092771D02*
X165372836Y-96137282D01*
X165372836Y-96137282D02*
X165283815Y-96181792D01*
X165283815Y-96181792D02*
X165194794Y-96181792D01*
X165194794Y-96181792D02*
X165105773Y-96137282D01*
X165105773Y-96137282D02*
X165061262Y-96092771D01*
X165061262Y-96092771D02*
X165016752Y-96003750D01*
X165016752Y-96003750D02*
X164972241Y-95825708D01*
X164972241Y-95825708D02*
X164972241Y-95603156D01*
X164972241Y-95603156D02*
X165016752Y-95425114D01*
X165016752Y-95425114D02*
X165061262Y-95336093D01*
X165061262Y-95336093D02*
X165105773Y-95291582D01*
X165105773Y-95291582D02*
X165194794Y-95247072D01*
X166040493Y-95647666D02*
X165951472Y-95603156D01*
X165951472Y-95603156D02*
X165906962Y-95558645D01*
X165906962Y-95558645D02*
X165862451Y-95469624D01*
X165862451Y-95469624D02*
X165862451Y-95425114D01*
X165862451Y-95425114D02*
X165906962Y-95336093D01*
X165906962Y-95336093D02*
X165951472Y-95291582D01*
X165951472Y-95291582D02*
X166040493Y-95247072D01*
X166040493Y-95247072D02*
X166218535Y-95247072D01*
X166218535Y-95247072D02*
X166307556Y-95291582D01*
X166307556Y-95291582D02*
X166352067Y-95336093D01*
X166352067Y-95336093D02*
X166396577Y-95425114D01*
X166396577Y-95425114D02*
X166396577Y-95469624D01*
X166396577Y-95469624D02*
X166352067Y-95558645D01*
X166352067Y-95558645D02*
X166307556Y-95603156D01*
X166307556Y-95603156D02*
X166218535Y-95647666D01*
X166218535Y-95647666D02*
X166040493Y-95647666D01*
X166040493Y-95647666D02*
X165951472Y-95692177D01*
X165951472Y-95692177D02*
X165906962Y-95736687D01*
X165906962Y-95736687D02*
X165862451Y-95825708D01*
X165862451Y-95825708D02*
X165862451Y-96003750D01*
X165862451Y-96003750D02*
X165906962Y-96092771D01*
X165906962Y-96092771D02*
X165951472Y-96137282D01*
X165951472Y-96137282D02*
X166040493Y-96181792D01*
X166040493Y-96181792D02*
X166218535Y-96181792D01*
X166218535Y-96181792D02*
X166307556Y-96137282D01*
X166307556Y-96137282D02*
X166352067Y-96092771D01*
X166352067Y-96092771D02*
X166396577Y-96003750D01*
X166396577Y-96003750D02*
X166396577Y-95825708D01*
X166396577Y-95825708D02*
X166352067Y-95736687D01*
X166352067Y-95736687D02*
X166307556Y-95692177D01*
X166307556Y-95692177D02*
X166218535Y-95647666D01*
X167197766Y-95558645D02*
X167197766Y-96181792D01*
X166975214Y-95202562D02*
X166752661Y-95870219D01*
X166752661Y-95870219D02*
X167331298Y-95870219D01*
X167687382Y-95825708D02*
X168399550Y-95825708D01*
X169022696Y-95247072D02*
X169111717Y-95247072D01*
X169111717Y-95247072D02*
X169200738Y-95291582D01*
X169200738Y-95291582D02*
X169245248Y-95336093D01*
X169245248Y-95336093D02*
X169289759Y-95425114D01*
X169289759Y-95425114D02*
X169334269Y-95603156D01*
X169334269Y-95603156D02*
X169334269Y-95825708D01*
X169334269Y-95825708D02*
X169289759Y-96003750D01*
X169289759Y-96003750D02*
X169245248Y-96092771D01*
X169245248Y-96092771D02*
X169200738Y-96137282D01*
X169200738Y-96137282D02*
X169111717Y-96181792D01*
X169111717Y-96181792D02*
X169022696Y-96181792D01*
X169022696Y-96181792D02*
X168933675Y-96137282D01*
X168933675Y-96137282D02*
X168889164Y-96092771D01*
X168889164Y-96092771D02*
X168844654Y-96003750D01*
X168844654Y-96003750D02*
X168800143Y-95825708D01*
X168800143Y-95825708D02*
X168800143Y-95603156D01*
X168800143Y-95603156D02*
X168844654Y-95425114D01*
X168844654Y-95425114D02*
X168889164Y-95336093D01*
X168889164Y-95336093D02*
X168933675Y-95291582D01*
X168933675Y-95291582D02*
X169022696Y-95247072D01*
X169734864Y-96092771D02*
X169779374Y-96137282D01*
X169779374Y-96137282D02*
X169734864Y-96181792D01*
X169734864Y-96181792D02*
X169690353Y-96137282D01*
X169690353Y-96137282D02*
X169734864Y-96092771D01*
X169734864Y-96092771D02*
X169734864Y-96181792D01*
X170580563Y-95558645D02*
X170580563Y-96181792D01*
X170358011Y-95202562D02*
X170135458Y-95870219D01*
X170135458Y-95870219D02*
X170714095Y-95870219D01*
X165639900Y-114637282D02*
X165550879Y-114681792D01*
X165550879Y-114681792D02*
X165372837Y-114681792D01*
X165372837Y-114681792D02*
X165283816Y-114637282D01*
X165283816Y-114637282D02*
X165239306Y-114592771D01*
X165239306Y-114592771D02*
X165194795Y-114503750D01*
X165194795Y-114503750D02*
X165194795Y-114236687D01*
X165194795Y-114236687D02*
X165239306Y-114147666D01*
X165239306Y-114147666D02*
X165283816Y-114103156D01*
X165283816Y-114103156D02*
X165372837Y-114058645D01*
X165372837Y-114058645D02*
X165550879Y-114058645D01*
X165550879Y-114058645D02*
X165639900Y-114103156D01*
X166174026Y-114681792D02*
X166085005Y-114637282D01*
X166085005Y-114637282D02*
X166040495Y-114592771D01*
X166040495Y-114592771D02*
X165995984Y-114503750D01*
X165995984Y-114503750D02*
X165995984Y-114236687D01*
X165995984Y-114236687D02*
X166040495Y-114147666D01*
X166040495Y-114147666D02*
X166085005Y-114103156D01*
X166085005Y-114103156D02*
X166174026Y-114058645D01*
X166174026Y-114058645D02*
X166307558Y-114058645D01*
X166307558Y-114058645D02*
X166396579Y-114103156D01*
X166396579Y-114103156D02*
X166441089Y-114147666D01*
X166441089Y-114147666D02*
X166485600Y-114236687D01*
X166485600Y-114236687D02*
X166485600Y-114503750D01*
X166485600Y-114503750D02*
X166441089Y-114592771D01*
X166441089Y-114592771D02*
X166396579Y-114637282D01*
X166396579Y-114637282D02*
X166307558Y-114681792D01*
X166307558Y-114681792D02*
X166174026Y-114681792D01*
X167286788Y-114681792D02*
X167286788Y-113747072D01*
X167286788Y-114637282D02*
X167197767Y-114681792D01*
X167197767Y-114681792D02*
X167019725Y-114681792D01*
X167019725Y-114681792D02*
X166930704Y-114637282D01*
X166930704Y-114637282D02*
X166886194Y-114592771D01*
X166886194Y-114592771D02*
X166841683Y-114503750D01*
X166841683Y-114503750D02*
X166841683Y-114236687D01*
X166841683Y-114236687D02*
X166886194Y-114147666D01*
X166886194Y-114147666D02*
X166930704Y-114103156D01*
X166930704Y-114103156D02*
X167019725Y-114058645D01*
X167019725Y-114058645D02*
X167197767Y-114058645D01*
X167197767Y-114058645D02*
X167286788Y-114103156D01*
X167731893Y-114681792D02*
X167731893Y-114058645D01*
X167731893Y-114147666D02*
X167776403Y-114103156D01*
X167776403Y-114103156D02*
X167865424Y-114058645D01*
X167865424Y-114058645D02*
X167998956Y-114058645D01*
X167998956Y-114058645D02*
X168087977Y-114103156D01*
X168087977Y-114103156D02*
X168132487Y-114192177D01*
X168132487Y-114192177D02*
X168132487Y-114681792D01*
X168132487Y-114192177D02*
X168176998Y-114103156D01*
X168176998Y-114103156D02*
X168266019Y-114058645D01*
X168266019Y-114058645D02*
X168399550Y-114058645D01*
X168399550Y-114058645D02*
X168488571Y-114103156D01*
X168488571Y-114103156D02*
X168533081Y-114192177D01*
X168533081Y-114192177D02*
X168533081Y-114681792D01*
X168978186Y-114592771D02*
X169022696Y-114637282D01*
X169022696Y-114637282D02*
X168978186Y-114681792D01*
X168978186Y-114681792D02*
X168933675Y-114637282D01*
X168933675Y-114637282D02*
X168978186Y-114592771D01*
X168978186Y-114592771D02*
X168978186Y-114681792D01*
X169823885Y-114681792D02*
X169823885Y-113747072D01*
X169823885Y-114637282D02*
X169734864Y-114681792D01*
X169734864Y-114681792D02*
X169556822Y-114681792D01*
X169556822Y-114681792D02*
X169467801Y-114637282D01*
X169467801Y-114637282D02*
X169423291Y-114592771D01*
X169423291Y-114592771D02*
X169378780Y-114503750D01*
X169378780Y-114503750D02*
X169378780Y-114236687D01*
X169378780Y-114236687D02*
X169423291Y-114147666D01*
X169423291Y-114147666D02*
X169467801Y-114103156D01*
X169467801Y-114103156D02*
X169556822Y-114058645D01*
X169556822Y-114058645D02*
X169734864Y-114058645D01*
X169734864Y-114058645D02*
X169823885Y-114103156D01*
X170625074Y-114637282D02*
X170536053Y-114681792D01*
X170536053Y-114681792D02*
X170358011Y-114681792D01*
X170358011Y-114681792D02*
X170268990Y-114637282D01*
X170268990Y-114637282D02*
X170224479Y-114548261D01*
X170224479Y-114548261D02*
X170224479Y-114192177D01*
X170224479Y-114192177D02*
X170268990Y-114103156D01*
X170268990Y-114103156D02*
X170358011Y-114058645D01*
X170358011Y-114058645D02*
X170536053Y-114058645D01*
X170536053Y-114058645D02*
X170625074Y-114103156D01*
X170625074Y-114103156D02*
X170669584Y-114192177D01*
X170669584Y-114192177D02*
X170669584Y-114281198D01*
X170669584Y-114281198D02*
X170224479Y-114370219D01*
X128166740Y-111334981D02*
X127632614Y-111334981D01*
X127899677Y-111334981D02*
X127899677Y-110400261D01*
X127899677Y-110400261D02*
X127810656Y-110533792D01*
X127810656Y-110533792D02*
X127721635Y-110622813D01*
X127721635Y-110622813D02*
X127632614Y-110667324D01*
D11*
X134630113Y-108046244D02*
X134630113Y-108680011D01*
X134630113Y-108680011D02*
X134667393Y-108754572D01*
X134667393Y-108754572D02*
X134704674Y-108791853D01*
X134704674Y-108791853D02*
X134779234Y-108829133D01*
X134779234Y-108829133D02*
X134928356Y-108829133D01*
X134928356Y-108829133D02*
X135002917Y-108791853D01*
X135002917Y-108791853D02*
X135040197Y-108754572D01*
X135040197Y-108754572D02*
X135077478Y-108680011D01*
X135077478Y-108680011D02*
X135077478Y-108046244D01*
X135413001Y-108120805D02*
X135450282Y-108083524D01*
X135450282Y-108083524D02*
X135524843Y-108046244D01*
X135524843Y-108046244D02*
X135711245Y-108046244D01*
X135711245Y-108046244D02*
X135785806Y-108083524D01*
X135785806Y-108083524D02*
X135823086Y-108120805D01*
X135823086Y-108120805D02*
X135860366Y-108195366D01*
X135860366Y-108195366D02*
X135860366Y-108269927D01*
X135860366Y-108269927D02*
X135823086Y-108381768D01*
X135823086Y-108381768D02*
X135375721Y-108829133D01*
X135375721Y-108829133D02*
X135860366Y-108829133D01*
D12*
X139169604Y-97376603D02*
X139204748Y-97411747D01*
X139204748Y-97411747D02*
X139239891Y-97517179D01*
X139239891Y-97517179D02*
X139239891Y-97587467D01*
X139239891Y-97587467D02*
X139204748Y-97692898D01*
X139204748Y-97692898D02*
X139134460Y-97763186D01*
X139134460Y-97763186D02*
X139064172Y-97798330D01*
X139064172Y-97798330D02*
X138923596Y-97833474D01*
X138923596Y-97833474D02*
X138818165Y-97833474D01*
X138818165Y-97833474D02*
X138677589Y-97798330D01*
X138677589Y-97798330D02*
X138607301Y-97763186D01*
X138607301Y-97763186D02*
X138537013Y-97692898D01*
X138537013Y-97692898D02*
X138501869Y-97587467D01*
X138501869Y-97587467D02*
X138501869Y-97517179D01*
X138501869Y-97517179D02*
X138537013Y-97411747D01*
X138537013Y-97411747D02*
X138572157Y-97376603D01*
X139239891Y-96673725D02*
X139239891Y-97095452D01*
X139239891Y-96884588D02*
X138501869Y-96884588D01*
X138501869Y-96884588D02*
X138607301Y-96954876D01*
X138607301Y-96954876D02*
X138677589Y-97025164D01*
X138677589Y-97025164D02*
X138712733Y-97095452D01*
D13*
X131304300Y-108673487D02*
X131338554Y-108707741D01*
X131338554Y-108707741D02*
X131372807Y-108810502D01*
X131372807Y-108810502D02*
X131372807Y-108879010D01*
X131372807Y-108879010D02*
X131338554Y-108981771D01*
X131338554Y-108981771D02*
X131270046Y-109050278D01*
X131270046Y-109050278D02*
X131201539Y-109084532D01*
X131201539Y-109084532D02*
X131064524Y-109118786D01*
X131064524Y-109118786D02*
X130961763Y-109118786D01*
X130961763Y-109118786D02*
X130824748Y-109084532D01*
X130824748Y-109084532D02*
X130756240Y-109050278D01*
X130756240Y-109050278D02*
X130687733Y-108981771D01*
X130687733Y-108981771D02*
X130653479Y-108879010D01*
X130653479Y-108879010D02*
X130653479Y-108810502D01*
X130653479Y-108810502D02*
X130687733Y-108707741D01*
X130687733Y-108707741D02*
X130721987Y-108673487D01*
X130721987Y-108399458D02*
X130687733Y-108365204D01*
X130687733Y-108365204D02*
X130653479Y-108296697D01*
X130653479Y-108296697D02*
X130653479Y-108125428D01*
X130653479Y-108125428D02*
X130687733Y-108056921D01*
X130687733Y-108056921D02*
X130721987Y-108022667D01*
X130721987Y-108022667D02*
X130790494Y-107988413D01*
X130790494Y-107988413D02*
X130859002Y-107988413D01*
X130859002Y-107988413D02*
X130961763Y-108022667D01*
X130961763Y-108022667D02*
X131372807Y-108433711D01*
X131372807Y-108433711D02*
X131372807Y-107988413D01*
D14*
X131951914Y-114385052D02*
X131951914Y-114636045D01*
X132346331Y-114636045D02*
X131593353Y-114636045D01*
X131593353Y-114636045D02*
X131593353Y-114277484D01*
X132346331Y-113632074D02*
X132346331Y-113990635D01*
X132346331Y-113990635D02*
X131593353Y-113990635D01*
X132131194Y-113416937D02*
X132131194Y-113058376D01*
X132346331Y-113488649D02*
X131593353Y-113237657D01*
X131593353Y-113237657D02*
X132346331Y-112986664D01*
X132310475Y-112771527D02*
X132346331Y-112663959D01*
X132346331Y-112663959D02*
X132346331Y-112484678D01*
X132346331Y-112484678D02*
X132310475Y-112412966D01*
X132310475Y-112412966D02*
X132274618Y-112377110D01*
X132274618Y-112377110D02*
X132202906Y-112341254D01*
X132202906Y-112341254D02*
X132131194Y-112341254D01*
X132131194Y-112341254D02*
X132059482Y-112377110D01*
X132059482Y-112377110D02*
X132023626Y-112412966D01*
X132023626Y-112412966D02*
X131987770Y-112484678D01*
X131987770Y-112484678D02*
X131951914Y-112628103D01*
X131951914Y-112628103D02*
X131916057Y-112699815D01*
X131916057Y-112699815D02*
X131880201Y-112735671D01*
X131880201Y-112735671D02*
X131808489Y-112771527D01*
X131808489Y-112771527D02*
X131736777Y-112771527D01*
X131736777Y-112771527D02*
X131665065Y-112735671D01*
X131665065Y-112735671D02*
X131629209Y-112699815D01*
X131629209Y-112699815D02*
X131593353Y-112628103D01*
X131593353Y-112628103D02*
X131593353Y-112448822D01*
X131593353Y-112448822D02*
X131629209Y-112341254D01*
X132346331Y-112018549D02*
X131593353Y-112018549D01*
X131951914Y-112018549D02*
X131951914Y-111588276D01*
X132346331Y-111588276D02*
X131593353Y-111588276D01*
X131593353Y-111086291D02*
X131593353Y-111014578D01*
X131593353Y-111014578D02*
X131629209Y-110942866D01*
X131629209Y-110942866D02*
X131665065Y-110907010D01*
X131665065Y-110907010D02*
X131736777Y-110871154D01*
X131736777Y-110871154D02*
X131880201Y-110835298D01*
X131880201Y-110835298D02*
X132059482Y-110835298D01*
X132059482Y-110835298D02*
X132202906Y-110871154D01*
X132202906Y-110871154D02*
X132274618Y-110907010D01*
X132274618Y-110907010D02*
X132310475Y-110942866D01*
X132310475Y-110942866D02*
X132346331Y-111014578D01*
X132346331Y-111014578D02*
X132346331Y-111086291D01*
X132346331Y-111086291D02*
X132310475Y-111158003D01*
X132310475Y-111158003D02*
X132274618Y-111193859D01*
X132274618Y-111193859D02*
X132202906Y-111229715D01*
X132202906Y-111229715D02*
X132059482Y-111265571D01*
X132059482Y-111265571D02*
X131880201Y-111265571D01*
X131880201Y-111265571D02*
X131736777Y-111229715D01*
X131736777Y-111229715D02*
X131665065Y-111193859D01*
X131665065Y-111193859D02*
X131629209Y-111158003D01*
X131629209Y-111158003D02*
X131593353Y-111086291D01*
D13*
X130709686Y-103747352D02*
X131223492Y-103747352D01*
X131223492Y-103747352D02*
X131326253Y-103781605D01*
X131326253Y-103781605D02*
X131394761Y-103850113D01*
X131394761Y-103850113D02*
X131429014Y-103952874D01*
X131429014Y-103952874D02*
X131429014Y-104021381D01*
X130709686Y-103507576D02*
X130709686Y-103096532D01*
X131429014Y-103302054D02*
X130709686Y-103302054D01*
X131223492Y-102891010D02*
X131223492Y-102548473D01*
X131429014Y-102959517D02*
X130709686Y-102719741D01*
X130709686Y-102719741D02*
X131429014Y-102479965D01*
X130743940Y-101863398D02*
X130709686Y-101931906D01*
X130709686Y-101931906D02*
X130709686Y-102034667D01*
X130709686Y-102034667D02*
X130743940Y-102137428D01*
X130743940Y-102137428D02*
X130812447Y-102205935D01*
X130812447Y-102205935D02*
X130880955Y-102240189D01*
X130880955Y-102240189D02*
X131017970Y-102274443D01*
X131017970Y-102274443D02*
X131120731Y-102274443D01*
X131120731Y-102274443D02*
X131257746Y-102240189D01*
X131257746Y-102240189D02*
X131326253Y-102205935D01*
X131326253Y-102205935D02*
X131394761Y-102137428D01*
X131394761Y-102137428D02*
X131429014Y-102034667D01*
X131429014Y-102034667D02*
X131429014Y-101966159D01*
X131429014Y-101966159D02*
X131394761Y-101863398D01*
X131394761Y-101863398D02*
X131360507Y-101829144D01*
X131360507Y-101829144D02*
X131120731Y-101829144D01*
X131120731Y-101829144D02*
X131120731Y-101966159D01*
X130709686Y-101383846D02*
X130709686Y-101315339D01*
X130709686Y-101315339D02*
X130743940Y-101246831D01*
X130743940Y-101246831D02*
X130778194Y-101212578D01*
X130778194Y-101212578D02*
X130846701Y-101178324D01*
X130846701Y-101178324D02*
X130983716Y-101144070D01*
X130983716Y-101144070D02*
X131154985Y-101144070D01*
X131154985Y-101144070D02*
X131291999Y-101178324D01*
X131291999Y-101178324D02*
X131360507Y-101212578D01*
X131360507Y-101212578D02*
X131394761Y-101246831D01*
X131394761Y-101246831D02*
X131429014Y-101315339D01*
X131429014Y-101315339D02*
X131429014Y-101383846D01*
X131429014Y-101383846D02*
X131394761Y-101452354D01*
X131394761Y-101452354D02*
X131360507Y-101486607D01*
X131360507Y-101486607D02*
X131291999Y-101520861D01*
X131291999Y-101520861D02*
X131154985Y-101555115D01*
X131154985Y-101555115D02*
X130983716Y-101555115D01*
X130983716Y-101555115D02*
X130846701Y-101520861D01*
X130846701Y-101520861D02*
X130778194Y-101486607D01*
X130778194Y-101486607D02*
X130743940Y-101452354D01*
X130743940Y-101452354D02*
X130709686Y-101383846D01*
D15*
X139256202Y-101367816D02*
X138929869Y-101596249D01*
X139256202Y-101759416D02*
X138570902Y-101759416D01*
X138570902Y-101759416D02*
X138570902Y-101498349D01*
X138570902Y-101498349D02*
X138603535Y-101433083D01*
X138603535Y-101433083D02*
X138636169Y-101400449D01*
X138636169Y-101400449D02*
X138701435Y-101367816D01*
X138701435Y-101367816D02*
X138799335Y-101367816D01*
X138799335Y-101367816D02*
X138864602Y-101400449D01*
X138864602Y-101400449D02*
X138897235Y-101433083D01*
X138897235Y-101433083D02*
X138929869Y-101498349D01*
X138929869Y-101498349D02*
X138929869Y-101759416D01*
X138636169Y-101106749D02*
X138603535Y-101074116D01*
X138603535Y-101074116D02*
X138570902Y-101008849D01*
X138570902Y-101008849D02*
X138570902Y-100845683D01*
X138570902Y-100845683D02*
X138603535Y-100780416D01*
X138603535Y-100780416D02*
X138636169Y-100747783D01*
X138636169Y-100747783D02*
X138701435Y-100715149D01*
X138701435Y-100715149D02*
X138766702Y-100715149D01*
X138766702Y-100715149D02*
X138864602Y-100747783D01*
X138864602Y-100747783D02*
X139256202Y-101139383D01*
X139256202Y-101139383D02*
X139256202Y-100715149D01*
D16*
X139252014Y-112877732D02*
X138897348Y-113125999D01*
X139252014Y-113303332D02*
X138507214Y-113303332D01*
X138507214Y-113303332D02*
X138507214Y-113019599D01*
X138507214Y-113019599D02*
X138542681Y-112948666D01*
X138542681Y-112948666D02*
X138578148Y-112913199D01*
X138578148Y-112913199D02*
X138649081Y-112877732D01*
X138649081Y-112877732D02*
X138755481Y-112877732D01*
X138755481Y-112877732D02*
X138826414Y-112913199D01*
X138826414Y-112913199D02*
X138861881Y-112948666D01*
X138861881Y-112948666D02*
X138897348Y-113019599D01*
X138897348Y-113019599D02*
X138897348Y-113303332D01*
X139252014Y-112168399D02*
X139252014Y-112593999D01*
X139252014Y-112381199D02*
X138507214Y-112381199D01*
X138507214Y-112381199D02*
X138613614Y-112452132D01*
X138613614Y-112452132D02*
X138684548Y-112523066D01*
X138684548Y-112523066D02*
X138720014Y-112593999D01*
D14*
X132346331Y-98705772D02*
X131987770Y-98956765D01*
X132346331Y-99136045D02*
X131593353Y-99136045D01*
X131593353Y-99136045D02*
X131593353Y-98849196D01*
X131593353Y-98849196D02*
X131629209Y-98777484D01*
X131629209Y-98777484D02*
X131665065Y-98741628D01*
X131665065Y-98741628D02*
X131736777Y-98705772D01*
X131736777Y-98705772D02*
X131844345Y-98705772D01*
X131844345Y-98705772D02*
X131916057Y-98741628D01*
X131916057Y-98741628D02*
X131951914Y-98777484D01*
X131951914Y-98777484D02*
X131987770Y-98849196D01*
X131987770Y-98849196D02*
X131987770Y-99136045D01*
X131951914Y-98383067D02*
X131951914Y-98132074D01*
X132346331Y-98024506D02*
X132346331Y-98383067D01*
X132346331Y-98383067D02*
X131593353Y-98383067D01*
X131593353Y-98383067D02*
X131593353Y-98024506D01*
X132310475Y-97737657D02*
X132346331Y-97630089D01*
X132346331Y-97630089D02*
X132346331Y-97450808D01*
X132346331Y-97450808D02*
X132310475Y-97379096D01*
X132310475Y-97379096D02*
X132274618Y-97343240D01*
X132274618Y-97343240D02*
X132202906Y-97307384D01*
X132202906Y-97307384D02*
X132131194Y-97307384D01*
X132131194Y-97307384D02*
X132059482Y-97343240D01*
X132059482Y-97343240D02*
X132023626Y-97379096D01*
X132023626Y-97379096D02*
X131987770Y-97450808D01*
X131987770Y-97450808D02*
X131951914Y-97594233D01*
X131951914Y-97594233D02*
X131916057Y-97665945D01*
X131916057Y-97665945D02*
X131880201Y-97701801D01*
X131880201Y-97701801D02*
X131808489Y-97737657D01*
X131808489Y-97737657D02*
X131736777Y-97737657D01*
X131736777Y-97737657D02*
X131665065Y-97701801D01*
X131665065Y-97701801D02*
X131629209Y-97665945D01*
X131629209Y-97665945D02*
X131593353Y-97594233D01*
X131593353Y-97594233D02*
X131593353Y-97414952D01*
X131593353Y-97414952D02*
X131629209Y-97307384D01*
X131951914Y-96984679D02*
X131951914Y-96733686D01*
X132346331Y-96626118D02*
X132346331Y-96984679D01*
X132346331Y-96984679D02*
X131593353Y-96984679D01*
X131593353Y-96984679D02*
X131593353Y-96626118D01*
X131593353Y-96410981D02*
X131593353Y-95980708D01*
X132346331Y-96195845D02*
X131593353Y-96195845D01*
X131593353Y-95586291D02*
X131593353Y-95514578D01*
X131593353Y-95514578D02*
X131629209Y-95442866D01*
X131629209Y-95442866D02*
X131665065Y-95407010D01*
X131665065Y-95407010D02*
X131736777Y-95371154D01*
X131736777Y-95371154D02*
X131880201Y-95335298D01*
X131880201Y-95335298D02*
X132059482Y-95335298D01*
X132059482Y-95335298D02*
X132202906Y-95371154D01*
X132202906Y-95371154D02*
X132274618Y-95407010D01*
X132274618Y-95407010D02*
X132310475Y-95442866D01*
X132310475Y-95442866D02*
X132346331Y-95514578D01*
X132346331Y-95514578D02*
X132346331Y-95586291D01*
X132346331Y-95586291D02*
X132310475Y-95658003D01*
X132310475Y-95658003D02*
X132274618Y-95693859D01*
X132274618Y-95693859D02*
X132202906Y-95729715D01*
X132202906Y-95729715D02*
X132059482Y-95765571D01*
X132059482Y-95765571D02*
X131880201Y-95765571D01*
X131880201Y-95765571D02*
X131736777Y-95729715D01*
X131736777Y-95729715D02*
X131665065Y-95693859D01*
X131665065Y-95693859D02*
X131629209Y-95658003D01*
X131629209Y-95658003D02*
X131593353Y-95586291D01*
X139034126Y-105505585D02*
X139069983Y-105541441D01*
X139069983Y-105541441D02*
X139105839Y-105649009D01*
X139105839Y-105649009D02*
X139105839Y-105720721D01*
X139105839Y-105720721D02*
X139069983Y-105828290D01*
X139069983Y-105828290D02*
X138998270Y-105900002D01*
X138998270Y-105900002D02*
X138926558Y-105935858D01*
X138926558Y-105935858D02*
X138783134Y-105971714D01*
X138783134Y-105971714D02*
X138675565Y-105971714D01*
X138675565Y-105971714D02*
X138532141Y-105935858D01*
X138532141Y-105935858D02*
X138460429Y-105900002D01*
X138460429Y-105900002D02*
X138388717Y-105828290D01*
X138388717Y-105828290D02*
X138352861Y-105720721D01*
X138352861Y-105720721D02*
X138352861Y-105649009D01*
X138352861Y-105649009D02*
X138388717Y-105541441D01*
X138388717Y-105541441D02*
X138424573Y-105505585D01*
X139034126Y-104752607D02*
X139069983Y-104788463D01*
X139069983Y-104788463D02*
X139105839Y-104896031D01*
X139105839Y-104896031D02*
X139105839Y-104967743D01*
X139105839Y-104967743D02*
X139069983Y-105075312D01*
X139069983Y-105075312D02*
X138998270Y-105147024D01*
X138998270Y-105147024D02*
X138926558Y-105182880D01*
X138926558Y-105182880D02*
X138783134Y-105218736D01*
X138783134Y-105218736D02*
X138675565Y-105218736D01*
X138675565Y-105218736D02*
X138532141Y-105182880D01*
X138532141Y-105182880D02*
X138460429Y-105147024D01*
X138460429Y-105147024D02*
X138388717Y-105075312D01*
X138388717Y-105075312D02*
X138352861Y-104967743D01*
X138352861Y-104967743D02*
X138352861Y-104896031D01*
X138352861Y-104896031D02*
X138388717Y-104788463D01*
X138388717Y-104788463D02*
X138424573Y-104752607D01*
X138352861Y-104286478D02*
X138352861Y-104214765D01*
X138352861Y-104214765D02*
X138388717Y-104143053D01*
X138388717Y-104143053D02*
X138424573Y-104107197D01*
X138424573Y-104107197D02*
X138496285Y-104071341D01*
X138496285Y-104071341D02*
X138639709Y-104035485D01*
X138639709Y-104035485D02*
X138818990Y-104035485D01*
X138818990Y-104035485D02*
X138962414Y-104071341D01*
X138962414Y-104071341D02*
X139034126Y-104107197D01*
X139034126Y-104107197D02*
X139069983Y-104143053D01*
X139069983Y-104143053D02*
X139105839Y-104214765D01*
X139105839Y-104214765D02*
X139105839Y-104286478D01*
X139105839Y-104286478D02*
X139069983Y-104358190D01*
X139069983Y-104358190D02*
X139034126Y-104394046D01*
X139034126Y-104394046D02*
X138962414Y-104429902D01*
X138962414Y-104429902D02*
X138818990Y-104465758D01*
X138818990Y-104465758D02*
X138639709Y-104465758D01*
X138639709Y-104465758D02*
X138496285Y-104429902D01*
X138496285Y-104429902D02*
X138424573Y-104394046D01*
X138424573Y-104394046D02*
X138388717Y-104358190D01*
X138388717Y-104358190D02*
X138352861Y-104286478D01*
D17*
X140216279Y-102937984D02*
X140216279Y-102510684D01*
X140429929Y-102724334D02*
X140002628Y-102724334D01*
D13*
X139716713Y-108673487D02*
X139750967Y-108707741D01*
X139750967Y-108707741D02*
X139785220Y-108810502D01*
X139785220Y-108810502D02*
X139785220Y-108879010D01*
X139785220Y-108879010D02*
X139750967Y-108981771D01*
X139750967Y-108981771D02*
X139682459Y-109050278D01*
X139682459Y-109050278D02*
X139613952Y-109084532D01*
X139613952Y-109084532D02*
X139476937Y-109118786D01*
X139476937Y-109118786D02*
X139374176Y-109118786D01*
X139374176Y-109118786D02*
X139237161Y-109084532D01*
X139237161Y-109084532D02*
X139168653Y-109050278D01*
X139168653Y-109050278D02*
X139100146Y-108981771D01*
X139100146Y-108981771D02*
X139065892Y-108879010D01*
X139065892Y-108879010D02*
X139065892Y-108810502D01*
X139065892Y-108810502D02*
X139100146Y-108707741D01*
X139100146Y-108707741D02*
X139134400Y-108673487D01*
X139065892Y-108433711D02*
X139065892Y-107988413D01*
X139065892Y-107988413D02*
X139339922Y-108228189D01*
X139339922Y-108228189D02*
X139339922Y-108125428D01*
X139339922Y-108125428D02*
X139374176Y-108056921D01*
X139374176Y-108056921D02*
X139408429Y-108022667D01*
X139408429Y-108022667D02*
X139476937Y-107988413D01*
X139476937Y-107988413D02*
X139648205Y-107988413D01*
X139648205Y-107988413D02*
X139716713Y-108022667D01*
X139716713Y-108022667D02*
X139750967Y-108056921D01*
X139750967Y-108056921D02*
X139785220Y-108125428D01*
X139785220Y-108125428D02*
X139785220Y-108330950D01*
X139785220Y-108330950D02*
X139750967Y-108399458D01*
X139750967Y-108399458D02*
X139716713Y-108433711D01*
D18*
X133931100Y-108983000D02*
X133931100Y-108124200D01*
X135469500Y-109262400D02*
X134932700Y-109262400D01*
X136471100Y-108124200D02*
X136471100Y-108983000D01*
D19*
X136864800Y-107537600D02*
G75*
G02*
X136737800Y-107537600I-63500J0D01*
G01*
X136737800Y-107537600D02*
G75*
G02*
X136864800Y-107537600I63500J0D01*
G01*
X141701100Y-96753600D02*
X171701100Y-96753600D01*
X141701100Y-113153600D02*
X141701100Y-96753600D01*
X160701100Y-108753600D02*
X160701100Y-111753600D01*
X160701100Y-111753600D02*
X164701100Y-111753600D01*
X164701100Y-108753600D02*
X160701100Y-108753600D01*
X164701100Y-111753600D02*
X164701100Y-108753600D01*
X166701100Y-99253600D02*
X170701100Y-99253600D01*
X167701100Y-101253600D02*
X167701100Y-103253600D01*
X167701100Y-103253600D02*
X170701100Y-103253600D01*
X167701100Y-105253600D02*
X167701100Y-107253600D01*
X167701100Y-107253600D02*
X170701100Y-107253600D01*
X170701100Y-99253600D02*
X170701100Y-101253600D01*
X170701100Y-101253600D02*
X167701100Y-101253600D01*
X170701100Y-103253600D02*
X170701100Y-105253600D01*
X170701100Y-105253600D02*
X167701100Y-105253600D01*
X170701100Y-107253600D02*
X170701100Y-109253600D01*
X170701100Y-109253600D02*
X165701100Y-109253600D01*
X170701100Y-109253600D02*
X170701100Y-111253600D01*
X170701100Y-111253600D02*
X165701100Y-111253600D01*
X171701100Y-96753600D02*
X171701100Y-113153600D01*
X171701100Y-113153600D02*
X141701100Y-113153600D01*
X163791046Y-110253600D02*
G75*
G02*
X161811154Y-110253600I-989946J0D01*
G01*
X161811154Y-110253600D02*
G75*
G02*
X163791046Y-110253600I989946J0D01*
G01*
D20*
X134401100Y-111203600D02*
X136001100Y-111203600D01*
X136001100Y-114303600D02*
X134401100Y-114303600D01*
X134701100Y-111653600D02*
G75*
G02*
X134501100Y-111653600I-100000J0D01*
G01*
X134501100Y-111653600D02*
G75*
G02*
X134701100Y-111653600I100000J0D01*
G01*
X131501100Y-104753600D02*
X131501100Y-104753600D01*
X131501100Y-104953600D02*
X131501100Y-104953600D01*
D21*
X131826100Y-102053600D02*
X131826100Y-103053600D01*
X138176100Y-102053600D02*
X138176100Y-103053600D01*
D20*
X131501100Y-104753600D02*
G75*
G02*
X131501100Y-104953600I0J-100000D01*
G01*
X131501100Y-104953600D02*
G75*
G02*
X131501100Y-104753600I0J100000D01*
G01*
X134401100Y-95703600D02*
X136001100Y-95703600D01*
X136001100Y-98803600D02*
X134401100Y-98803600D01*
X135901100Y-98353600D02*
G75*
G02*
X135701100Y-98353600I-100000J0D01*
G01*
X135701100Y-98353600D02*
G75*
G02*
X135901100Y-98353600I100000J0D01*
G01*
X139476100Y-105216600D02*
X139476100Y-104784600D01*
D21*
X140061100Y-104893600D02*
X140351100Y-104893600D01*
X140201100Y-105133600D02*
X140061100Y-104893600D01*
X140351100Y-104893600D02*
X140201100Y-105133600D01*
D20*
X140926100Y-105209600D02*
X140926100Y-104791600D01*
M02*
