M48
;Layer_Color=9474304
;FILE_FORMAT=4:4
METRIC,LZ
;TYPE=PLATED
T1F00S00C0.4000
T2F00S00C1.1000
%
T01
X00061999Y00093
X00075999Y00127
X00088011Y0012699
X00101001Y00127
X00114
X00127
X00138999Y00155011
X00172999Y00148001
X00197Y00145001
X00221244Y00138279
X00213989Y0013001
X00227575Y00150018
X00243628Y00158006
X00242999Y00168999
X00314Y0017
X0027Y0012
Y0008
X00218001Y00051001
X00205999
X00195001Y00037
X00168001Y00017
X00131999Y00041001
X00147Y00057
X0018Y0008
X00359999
Y0012
T02
X00014971Y00051971
Y00077371
Y00102771
Y00128171
X00040371
Y00102771
Y00077371
Y00051971
Y00153571
X00014971
M30
