G04 #@! TF.GenerationSoftware,KiCad,Pcbnew,9.0.1*
G04 #@! TF.CreationDate,2025-11-05T13:06:52+03:00*
G04 #@! TF.ProjectId,rpi-cc2652p-uart,7270692d-6363-4323-9635-32702d756172,rev?*
G04 #@! TF.SameCoordinates,Original*
G04 #@! TF.FileFunction,Copper,L2,Bot*
G04 #@! TF.FilePolarity,Positive*
%FSLAX46Y46*%
G04 Gerber Fmt 4.6, Leading zero omitted, Abs format (unit mm)*
G04 Created by KiCad (PCBNEW 9.0.1) date 2025-11-05 13:06:52*
%MOMM*%
%LPD*%
G01*
G04 APERTURE LIST*
G04 Aperture macros list*
%AMOutline5P*
0 Free polygon, 5 corners , with rotation*
0 The origin of the aperture is its center*
0 number of corners: always 5*
0 $1 to $10 corner X, Y*
0 $11 Rotation angle, in degrees counterclockwise*
0 create outline with 5 corners*
4,1,5,$1,$2,$3,$4,$5,$6,$7,$8,$9,$10,$1,$2,$11*%
%AMOutline6P*
0 Free polygon, 6 corners , with rotation*
0 The origin of the aperture is its center*
0 number of corners: always 6*
0 $1 to $12 corner X, Y*
0 $13 Rotation angle, in degrees counterclockwise*
0 create outline with 6 corners*
4,1,6,$1,$2,$3,$4,$5,$6,$7,$8,$9,$10,$11,$12,$1,$2,$13*%
%AMOutline7P*
0 Free polygon, 7 corners , with rotation*
0 The origin of the aperture is its center*
0 number of corners: always 7*
0 $1 to $14 corner X, Y*
0 $15 Rotation angle, in degrees counterclockwise*
0 create outline with 7 corners*
4,1,7,$1,$2,$3,$4,$5,$6,$7,$8,$9,$10,$11,$12,$13,$14,$1,$2,$15*%
%AMOutline8P*
0 Free polygon, 8 corners , with rotation*
0 The origin of the aperture is its center*
0 number of corners: always 8*
0 $1 to $16 corner X, Y*
0 $17 Rotation angle, in degrees counterclockwise*
0 create outline with 8 corners*
4,1,8,$1,$2,$3,$4,$5,$6,$7,$8,$9,$10,$11,$12,$13,$14,$15,$16,$1,$2,$17*%
G04 Aperture macros list end*
G04 #@! TA.AperFunction,ComponentPad*
%ADD10Outline8P,-0.762000X0.315631X-0.315631X0.762000X0.315631X0.762000X0.762000X0.315631X0.762000X-0.315631X0.315631X-0.762000X-0.315631X-0.762000X-0.762000X-0.315631X90.000000*%
G04 #@! TD*
G04 #@! TA.AperFunction,ViaPad*
%ADD11C,0.750000*%
G04 #@! TD*
G04 #@! TA.AperFunction,Conductor*
%ADD12C,0.254000*%
G04 #@! TD*
G04 #@! TA.AperFunction,Conductor*
%ADD13C,0.152400*%
G04 #@! TD*
G04 APERTURE END LIST*
D10*
X126398100Y-110056600D03*
X128938100Y-110056600D03*
X126398100Y-107516600D03*
X128938100Y-107516600D03*
X126398100Y-104976600D03*
X128938100Y-104976600D03*
X126398100Y-102436600D03*
X128938100Y-102436600D03*
X126398100Y-99896600D03*
X128938100Y-99896600D03*
D11*
X138801100Y-99752400D03*
X131101100Y-105953600D03*
X139601100Y-109553600D03*
X160901100Y-103253600D03*
X160901100Y-107253600D03*
X151901100Y-103253600D03*
X144601100Y-100753600D03*
X151901100Y-107253600D03*
X142901100Y-107253600D03*
X149201100Y-99253600D03*
X149201100Y-98353600D03*
X147701100Y-100653600D03*
X141701100Y-113553600D03*
X137601100Y-102553600D03*
X132501100Y-102553600D03*
X147001100Y-101453600D03*
X133701100Y-102553600D03*
X146301100Y-102253600D03*
X135001100Y-102553600D03*
X145501100Y-110153600D03*
X146701100Y-110153600D03*
X136301100Y-102553600D03*
X138101100Y-111153600D03*
X144401100Y-111553600D03*
X142201100Y-100453600D03*
X156301100Y-98253600D03*
D12*
X131101100Y-107853600D02*
X132851100Y-109603600D01*
X139551100Y-109603600D02*
X139601100Y-109553600D01*
X131101100Y-102353600D02*
X132902300Y-100552400D01*
X138001100Y-100552400D02*
X132902300Y-100552400D01*
X131101100Y-102353600D02*
X131101100Y-105953600D01*
X132851100Y-109603600D02*
X139551100Y-109603600D01*
X131101100Y-105953600D02*
X131101100Y-107853600D01*
X138801100Y-99752400D02*
X138001100Y-100552400D01*
D13*
X132801100Y-98753600D02*
X130198700Y-101356000D01*
X127478700Y-101356000D02*
X126398100Y-102436600D01*
X130198700Y-101356000D02*
X127478700Y-101356000D01*
X149201100Y-99253600D02*
X148701100Y-98753600D01*
X148701100Y-98753600D02*
X132801100Y-98753600D01*
X129901100Y-101053600D02*
X127555100Y-101053600D01*
X127555100Y-101053600D02*
X126398100Y-99896600D01*
X132601100Y-98353600D02*
X129901100Y-101053600D01*
X149201100Y-98353600D02*
X132601100Y-98353600D01*
X147701100Y-102053600D02*
X146801100Y-102953600D01*
X147701100Y-112153600D02*
X147701100Y-100653600D01*
X146301100Y-113553600D02*
X147701100Y-112153600D01*
X137601100Y-102553600D02*
X138001100Y-102953600D01*
X146801100Y-102953600D02*
X138001100Y-102953600D01*
X147701100Y-102053600D02*
X147701100Y-100653600D01*
X146301100Y-113553600D02*
X141701100Y-113553600D01*
X147001100Y-101453600D02*
X146901100Y-101353600D01*
X146901100Y-101353600D02*
X133701100Y-101353600D01*
X132501100Y-102553600D02*
X133701100Y-101353600D01*
X133701100Y-102553600D02*
X133701100Y-102353600D01*
X145801100Y-101753600D02*
X146301100Y-102253600D01*
X145801100Y-101753600D02*
X134301100Y-101753600D01*
X134301100Y-101753600D02*
X133701100Y-102353600D01*
X136501100Y-104053600D02*
X145201100Y-104053600D01*
X135001100Y-102553600D02*
X136501100Y-104053600D01*
X145901100Y-104753600D02*
X145201100Y-104053600D01*
X145901100Y-104753600D02*
X145901100Y-109753600D01*
X145901100Y-109753600D02*
X145501100Y-110153600D01*
X137301100Y-103553600D02*
X145401100Y-103553600D01*
X146301100Y-104453600D02*
X146301100Y-109753600D01*
X146301100Y-109753600D02*
X146701100Y-110153600D01*
X146301100Y-104453600D02*
X145401100Y-103553600D01*
X136301100Y-102553600D02*
X137301100Y-103553600D01*
X144001100Y-111153600D02*
X144401100Y-111553600D01*
X138101100Y-111153600D02*
X144001100Y-111153600D01*
X142701100Y-99953600D02*
X142201100Y-100453600D01*
X156301100Y-98253600D02*
X154601100Y-99953600D01*
X154601100Y-99953600D02*
X142701100Y-99953600D01*
G04 #@! TA.AperFunction,Conductor*
G36*
X164966434Y-94789966D02*
G01*
X164977300Y-94816200D01*
X164977300Y-115191000D01*
X164966434Y-115217234D01*
X164940200Y-115228100D01*
X132502321Y-115228100D01*
X132499895Y-115228021D01*
X132485471Y-115227075D01*
X132245798Y-115211366D01*
X132240987Y-115210732D01*
X131992445Y-115161295D01*
X131987763Y-115160040D01*
X131747796Y-115078582D01*
X131743313Y-115076725D01*
X131516034Y-114964644D01*
X131511831Y-114962217D01*
X131301119Y-114821423D01*
X131297269Y-114818469D01*
X131234123Y-114763092D01*
X131106738Y-114651378D01*
X131103321Y-114647961D01*
X130936230Y-114457430D01*
X130933276Y-114453580D01*
X130792482Y-114242868D01*
X130790055Y-114238665D01*
X130682218Y-114019993D01*
X130677973Y-114011385D01*
X130676120Y-114006910D01*
X130594655Y-113766926D01*
X130593407Y-113762265D01*
X130543966Y-113513711D01*
X130543333Y-113508900D01*
X130526679Y-113254805D01*
X130526600Y-113252379D01*
X130526600Y-111743039D01*
X130526600Y-111743038D01*
X130511662Y-111728100D01*
X130511661Y-111728100D01*
X124963700Y-111728100D01*
X124937466Y-111717234D01*
X124926600Y-111691000D01*
X124926600Y-111087708D01*
X137600600Y-111087708D01*
X137600600Y-111219492D01*
X137607780Y-111246288D01*
X137634706Y-111346781D01*
X137634707Y-111346783D01*
X137634708Y-111346786D01*
X137700600Y-111460914D01*
X137793786Y-111554100D01*
X137907914Y-111619992D01*
X138035208Y-111654100D01*
X138035209Y-111654100D01*
X138166991Y-111654100D01*
X138166992Y-111654100D01*
X138294286Y-111619992D01*
X138408414Y-111554100D01*
X138501600Y-111460914D01*
X138551866Y-111373849D01*
X138574394Y-111356564D01*
X138583996Y-111355300D01*
X143887728Y-111355300D01*
X143913962Y-111366166D01*
X143924828Y-111392400D01*
X143923564Y-111402002D01*
X143900600Y-111487708D01*
X143900600Y-111619492D01*
X143909873Y-111654100D01*
X143934706Y-111746781D01*
X143934707Y-111746783D01*
X143934708Y-111746786D01*
X144000600Y-111860914D01*
X144093786Y-111954100D01*
X144207914Y-112019992D01*
X144335208Y-112054100D01*
X144335209Y-112054100D01*
X144466991Y-112054100D01*
X144466992Y-112054100D01*
X144594286Y-112019992D01*
X144708414Y-111954100D01*
X144801600Y-111860914D01*
X144867492Y-111746786D01*
X144901600Y-111619492D01*
X144901600Y-111487708D01*
X144867492Y-111360414D01*
X144801600Y-111246286D01*
X144708414Y-111153100D01*
X144594286Y-111087208D01*
X144594283Y-111087207D01*
X144594281Y-111087206D01*
X144503735Y-111062945D01*
X144466992Y-111053100D01*
X144335208Y-111053100D01*
X144288202Y-111065694D01*
X144238100Y-111079119D01*
X144209948Y-111075412D01*
X144202264Y-111069517D01*
X144185847Y-111053100D01*
X144115354Y-110982607D01*
X144115352Y-110982606D01*
X144115351Y-110982605D01*
X144041222Y-110951900D01*
X144041221Y-110951900D01*
X138583996Y-110951900D01*
X138557762Y-110941034D01*
X138551866Y-110933350D01*
X138501601Y-110846288D01*
X138501600Y-110846286D01*
X138408414Y-110753100D01*
X138294286Y-110687208D01*
X138294283Y-110687207D01*
X138294281Y-110687206D01*
X138203735Y-110662945D01*
X138166992Y-110653100D01*
X138035208Y-110653100D01*
X138006695Y-110660739D01*
X137907918Y-110687206D01*
X137907914Y-110687207D01*
X137907914Y-110687208D01*
X137877336Y-110704862D01*
X137793788Y-110753098D01*
X137700598Y-110846288D01*
X137660302Y-110916084D01*
X137644128Y-110944099D01*
X137634706Y-110960418D01*
X137628761Y-110982607D01*
X137600600Y-111087708D01*
X124926600Y-111087708D01*
X124926600Y-109728600D01*
X125510600Y-109728600D01*
X125510600Y-110384600D01*
X125517880Y-110421197D01*
X125517882Y-110421202D01*
X125538613Y-110452227D01*
X125538616Y-110452231D01*
X126002470Y-110916084D01*
X126033501Y-110936819D01*
X126054692Y-110941034D01*
X126070100Y-110944099D01*
X126070102Y-110944099D01*
X126070106Y-110944100D01*
X126070109Y-110944100D01*
X126726092Y-110944100D01*
X126726095Y-110944100D01*
X126762699Y-110936819D01*
X126793731Y-110916084D01*
X127257584Y-110452230D01*
X127278319Y-110421199D01*
X127285600Y-110384594D01*
X127285600Y-109728605D01*
X127285599Y-109728600D01*
X128050600Y-109728600D01*
X128050600Y-110384600D01*
X128057880Y-110421197D01*
X128057882Y-110421202D01*
X128078613Y-110452227D01*
X128078616Y-110452231D01*
X128542470Y-110916084D01*
X128573501Y-110936819D01*
X128594692Y-110941034D01*
X128610100Y-110944099D01*
X128610102Y-110944099D01*
X128610106Y-110944100D01*
X128610109Y-110944100D01*
X129266092Y-110944100D01*
X129266095Y-110944100D01*
X129302699Y-110936819D01*
X129333731Y-110916084D01*
X129797584Y-110452230D01*
X129818319Y-110421199D01*
X129825600Y-110384594D01*
X129825600Y-109728605D01*
X129818319Y-109692001D01*
X129818318Y-109691999D01*
X129818317Y-109691997D01*
X129797586Y-109660972D01*
X129797584Y-109660969D01*
X129333730Y-109197116D01*
X129302699Y-109176381D01*
X129302695Y-109176380D01*
X129266099Y-109169100D01*
X129266094Y-109169100D01*
X128610105Y-109169100D01*
X128610099Y-109169100D01*
X128573502Y-109176380D01*
X128573497Y-109176382D01*
X128542472Y-109197113D01*
X128078613Y-109660973D01*
X128057883Y-109691997D01*
X128057880Y-109692004D01*
X128050600Y-109728600D01*
X127285599Y-109728600D01*
X127278319Y-109692001D01*
X127278318Y-109691999D01*
X127278317Y-109691997D01*
X127257586Y-109660972D01*
X127257584Y-109660969D01*
X126793730Y-109197116D01*
X126762699Y-109176381D01*
X126762695Y-109176380D01*
X126726099Y-109169100D01*
X126726094Y-109169100D01*
X126070105Y-109169100D01*
X126070099Y-109169100D01*
X126033502Y-109176380D01*
X126033497Y-109176382D01*
X126002472Y-109197113D01*
X125538613Y-109660973D01*
X125517883Y-109691997D01*
X125517880Y-109692004D01*
X125510600Y-109728600D01*
X124926600Y-109728600D01*
X124926600Y-107188600D01*
X125510600Y-107188600D01*
X125510600Y-107844600D01*
X125517880Y-107881197D01*
X125517882Y-107881202D01*
X125538613Y-107912227D01*
X125538616Y-107912231D01*
X126002470Y-108376084D01*
X126033501Y-108396819D01*
X126061140Y-108402316D01*
X126070100Y-108404099D01*
X126070102Y-108404099D01*
X126070106Y-108404100D01*
X126070109Y-108404100D01*
X126726092Y-108404100D01*
X126726095Y-108404100D01*
X126762699Y-108396819D01*
X126793731Y-108376084D01*
X127257584Y-107912230D01*
X127278319Y-107881199D01*
X127285600Y-107844594D01*
X127285600Y-107188605D01*
X127285599Y-107188600D01*
X128050600Y-107188600D01*
X128050600Y-107844600D01*
X128057880Y-107881197D01*
X128057882Y-107881202D01*
X128078613Y-107912227D01*
X128078616Y-107912231D01*
X128542470Y-108376084D01*
X128573501Y-108396819D01*
X128601140Y-108402316D01*
X128610100Y-108404099D01*
X128610102Y-108404099D01*
X128610106Y-108404100D01*
X128610109Y-108404100D01*
X129266092Y-108404100D01*
X129266095Y-108404100D01*
X129302699Y-108396819D01*
X129333731Y-108376084D01*
X129797584Y-107912230D01*
X129818319Y-107881199D01*
X129825600Y-107844594D01*
X129825600Y-107188605D01*
X129818319Y-107152001D01*
X129818318Y-107151999D01*
X129818317Y-107151997D01*
X129797586Y-107120972D01*
X129797584Y-107120969D01*
X129333730Y-106657116D01*
X129302699Y-106636381D01*
X129302695Y-106636380D01*
X129266099Y-106629100D01*
X129266094Y-106629100D01*
X128610105Y-106629100D01*
X128610099Y-106629100D01*
X128573502Y-106636380D01*
X128573497Y-106636382D01*
X128542472Y-106657113D01*
X128078613Y-107120973D01*
X128057883Y-107151997D01*
X128057880Y-107152004D01*
X128050600Y-107188600D01*
X127285599Y-107188600D01*
X127278319Y-107152001D01*
X127278318Y-107151999D01*
X127278317Y-107151997D01*
X127257586Y-107120972D01*
X127257584Y-107120969D01*
X126793730Y-106657116D01*
X126762699Y-106636381D01*
X126762695Y-106636380D01*
X126726099Y-106629100D01*
X126726094Y-106629100D01*
X126070105Y-106629100D01*
X126070099Y-106629100D01*
X126033502Y-106636380D01*
X126033497Y-106636382D01*
X126002472Y-106657113D01*
X125538613Y-107120973D01*
X125517883Y-107151997D01*
X125517880Y-107152004D01*
X125510600Y-107188600D01*
X124926600Y-107188600D01*
X124926600Y-104641030D01*
X125433700Y-104641030D01*
X125433700Y-104875399D01*
X125433701Y-104875400D01*
X125899296Y-104875400D01*
X125890100Y-104909720D01*
X125890100Y-105043480D01*
X125899296Y-105077800D01*
X125433701Y-105077800D01*
X125433700Y-105077801D01*
X125433700Y-105312171D01*
X125445444Y-105371202D01*
X125478886Y-105421252D01*
X125953445Y-105895813D01*
X126003495Y-105929254D01*
X126003498Y-105929256D01*
X126062530Y-105940999D01*
X126062539Y-105941000D01*
X126296899Y-105941000D01*
X126296900Y-105940999D01*
X126296900Y-105475404D01*
X126331220Y-105484600D01*
X126464980Y-105484600D01*
X126499300Y-105475404D01*
X126499300Y-105940999D01*
X126499301Y-105941000D01*
X126733666Y-105941000D01*
X126733671Y-105940999D01*
X126792702Y-105929255D01*
X126842752Y-105895813D01*
X126850857Y-105887708D01*
X130600600Y-105887708D01*
X130600600Y-106019492D01*
X130615879Y-106076517D01*
X130634706Y-106146781D01*
X130634707Y-106146783D01*
X130634708Y-106146786D01*
X130700600Y-106260914D01*
X130793786Y-106354100D01*
X130793788Y-106354101D01*
X130793789Y-106354102D01*
X130830049Y-106375036D01*
X130847336Y-106397563D01*
X130848600Y-106407166D01*
X130848600Y-107903826D01*
X130887039Y-107996627D01*
X130887040Y-107996628D01*
X130887041Y-107996630D01*
X132637041Y-109746630D01*
X132637040Y-109746630D01*
X132688236Y-109797825D01*
X132708070Y-109817659D01*
X132800875Y-109856100D01*
X139180419Y-109856100D01*
X139206651Y-109866965D01*
X139293786Y-109954100D01*
X139407914Y-110019992D01*
X139535208Y-110054100D01*
X139535209Y-110054100D01*
X139666991Y-110054100D01*
X139666992Y-110054100D01*
X139794286Y-110019992D01*
X139908414Y-109954100D01*
X140001600Y-109860914D01*
X140067492Y-109746786D01*
X140101600Y-109619492D01*
X140101600Y-109487708D01*
X140067492Y-109360414D01*
X140001600Y-109246286D01*
X139908414Y-109153100D01*
X139794286Y-109087208D01*
X139794283Y-109087207D01*
X139794281Y-109087206D01*
X139703735Y-109062945D01*
X139666992Y-109053100D01*
X139535208Y-109053100D01*
X139506695Y-109060739D01*
X139407918Y-109087206D01*
X139407914Y-109087207D01*
X139407914Y-109087208D01*
X139377336Y-109104862D01*
X139293788Y-109153098D01*
X139200598Y-109246288D01*
X139178324Y-109284867D01*
X139150794Y-109332551D01*
X139128268Y-109349836D01*
X139118666Y-109351100D01*
X132971057Y-109351100D01*
X132944823Y-109340234D01*
X131364466Y-107759877D01*
X131353600Y-107733643D01*
X131353600Y-106407166D01*
X131364466Y-106380932D01*
X131372151Y-106375036D01*
X131382752Y-106368915D01*
X131408414Y-106354100D01*
X131501600Y-106260914D01*
X131567492Y-106146786D01*
X131601600Y-106019492D01*
X131601600Y-105887708D01*
X131567492Y-105760414D01*
X131501600Y-105646286D01*
X131408414Y-105553100D01*
X131408411Y-105553098D01*
X131408410Y-105553097D01*
X131372149Y-105532161D01*
X131354864Y-105509633D01*
X131353600Y-105500032D01*
X131353600Y-102473557D01*
X131364466Y-102447323D01*
X132996023Y-100815766D01*
X133022257Y-100804900D01*
X138051324Y-100804900D01*
X138051325Y-100804900D01*
X138144130Y-100766459D01*
X138658925Y-100251662D01*
X138685158Y-100240797D01*
X138694752Y-100242059D01*
X138735208Y-100252900D01*
X138735211Y-100252900D01*
X138866991Y-100252900D01*
X138866992Y-100252900D01*
X138994286Y-100218792D01*
X139108414Y-100152900D01*
X139201600Y-100059714D01*
X139267492Y-99945586D01*
X139301600Y-99818292D01*
X139301600Y-99686508D01*
X139267492Y-99559214D01*
X139201600Y-99445086D01*
X139108414Y-99351900D01*
X138994286Y-99286008D01*
X138994283Y-99286007D01*
X138994281Y-99286006D01*
X138903735Y-99261745D01*
X138866992Y-99251900D01*
X138735208Y-99251900D01*
X138706695Y-99259539D01*
X138607918Y-99286006D01*
X138607914Y-99286007D01*
X138607914Y-99286008D01*
X138577336Y-99303662D01*
X138493788Y-99351898D01*
X138400598Y-99445088D01*
X138352362Y-99528636D01*
X138350420Y-99532001D01*
X138334706Y-99559218D01*
X138327884Y-99584680D01*
X138301629Y-99682670D01*
X138300600Y-99686509D01*
X138300600Y-99818291D01*
X138311437Y-99858739D01*
X138307730Y-99886891D01*
X138301835Y-99894574D01*
X137907377Y-100289034D01*
X137881143Y-100299900D01*
X132852073Y-100299900D01*
X132759272Y-100338339D01*
X130958070Y-102139541D01*
X130958069Y-102139540D01*
X130887040Y-102210570D01*
X130848600Y-102303373D01*
X130848600Y-105500032D01*
X130837734Y-105526266D01*
X130830051Y-105532161D01*
X130793789Y-105553097D01*
X130700598Y-105646288D01*
X130634706Y-105760418D01*
X130614433Y-105836083D01*
X130600600Y-105887708D01*
X126850857Y-105887708D01*
X127317313Y-105421254D01*
X127350754Y-105371204D01*
X127350756Y-105371201D01*
X127362499Y-105312169D01*
X127362500Y-105312161D01*
X127362500Y-105077801D01*
X127362499Y-105077800D01*
X126896904Y-105077800D01*
X126906100Y-105043480D01*
X126906100Y-104909720D01*
X126896904Y-104875400D01*
X127362499Y-104875400D01*
X127362500Y-104875399D01*
X127362500Y-104648600D01*
X128050600Y-104648600D01*
X128050600Y-105304600D01*
X128057880Y-105341197D01*
X128057882Y-105341202D01*
X128078613Y-105372227D01*
X128078616Y-105372231D01*
X128542470Y-105836084D01*
X128573501Y-105856819D01*
X128601140Y-105862316D01*
X128610100Y-105864099D01*
X128610102Y-105864099D01*
X128610106Y-105864100D01*
X128610109Y-105864100D01*
X129266092Y-105864100D01*
X129266095Y-105864100D01*
X129302699Y-105856819D01*
X129333731Y-105836084D01*
X129797584Y-105372230D01*
X129818319Y-105341199D01*
X129825600Y-105304594D01*
X129825600Y-104648605D01*
X129818319Y-104612001D01*
X129818318Y-104611999D01*
X129818317Y-104611997D01*
X129797586Y-104580972D01*
X129797584Y-104580969D01*
X129333730Y-104117116D01*
X129302699Y-104096381D01*
X129302695Y-104096380D01*
X129266099Y-104089100D01*
X129266094Y-104089100D01*
X128610105Y-104089100D01*
X128610099Y-104089100D01*
X128573502Y-104096380D01*
X128573497Y-104096382D01*
X128542472Y-104117113D01*
X128078613Y-104580973D01*
X128057883Y-104611997D01*
X128057880Y-104612004D01*
X128050600Y-104648600D01*
X127362500Y-104648600D01*
X127362500Y-104641034D01*
X127362499Y-104641028D01*
X127350755Y-104581997D01*
X127317313Y-104531947D01*
X126842754Y-104057386D01*
X126792704Y-104023945D01*
X126792701Y-104023943D01*
X126733669Y-104012200D01*
X126499301Y-104012200D01*
X126499300Y-104012201D01*
X126499300Y-104477795D01*
X126464980Y-104468600D01*
X126331220Y-104468600D01*
X126296900Y-104477795D01*
X126296900Y-104012201D01*
X126296899Y-104012200D01*
X126062528Y-104012200D01*
X126003497Y-104023944D01*
X125953447Y-104057386D01*
X125478886Y-104531945D01*
X125445445Y-104581995D01*
X125445443Y-104581998D01*
X125433700Y-104641030D01*
X124926600Y-104641030D01*
X124926600Y-99568600D01*
X125510600Y-99568600D01*
X125510600Y-100224600D01*
X125517880Y-100261197D01*
X125517882Y-100261202D01*
X125538613Y-100292227D01*
X125538616Y-100292231D01*
X126002470Y-100756084D01*
X126033501Y-100776819D01*
X126061140Y-100782316D01*
X126070100Y-100784099D01*
X126070102Y-100784099D01*
X126070106Y-100784100D01*
X126070109Y-100784100D01*
X126726092Y-100784100D01*
X126726095Y-100784100D01*
X126762699Y-100776819D01*
X126793731Y-100756084D01*
X126856800Y-100693012D01*
X126883031Y-100682147D01*
X126909265Y-100693013D01*
X126909266Y-100693013D01*
X127356619Y-101140366D01*
X127367485Y-101166600D01*
X127356619Y-101192834D01*
X126909266Y-101640185D01*
X126883032Y-101651051D01*
X126856799Y-101640185D01*
X126793730Y-101577116D01*
X126780934Y-101568566D01*
X126762702Y-101556383D01*
X126762701Y-101556382D01*
X126762699Y-101556381D01*
X126762695Y-101556380D01*
X126726099Y-101549100D01*
X126726094Y-101549100D01*
X126070105Y-101549100D01*
X126070099Y-101549100D01*
X126033502Y-101556380D01*
X126033497Y-101556382D01*
X126002472Y-101577113D01*
X125538613Y-102040973D01*
X125517883Y-102071997D01*
X125517880Y-102072004D01*
X125510600Y-102108600D01*
X125510600Y-102764600D01*
X125517880Y-102801197D01*
X125517882Y-102801202D01*
X125538613Y-102832227D01*
X125538616Y-102832231D01*
X126002470Y-103296084D01*
X126033501Y-103316819D01*
X126061140Y-103322316D01*
X126070100Y-103324099D01*
X126070102Y-103324099D01*
X126070106Y-103324100D01*
X126070109Y-103324100D01*
X126726092Y-103324100D01*
X126726095Y-103324100D01*
X126762699Y-103316819D01*
X126793731Y-103296084D01*
X127257584Y-102832230D01*
X127278319Y-102801199D01*
X127285600Y-102764594D01*
X127285600Y-102108605D01*
X127278319Y-102072001D01*
X127278318Y-102071999D01*
X127278317Y-102071997D01*
X127257586Y-102040972D01*
X127257584Y-102040969D01*
X127194513Y-101977899D01*
X127183648Y-101951666D01*
X127194514Y-101925432D01*
X127366847Y-101753100D01*
X127551381Y-101568566D01*
X127577615Y-101557700D01*
X128472318Y-101557700D01*
X128498552Y-101568566D01*
X128509418Y-101594800D01*
X128498552Y-101621032D01*
X128298029Y-101821557D01*
X128078613Y-102040973D01*
X128057883Y-102071997D01*
X128057880Y-102072004D01*
X128050600Y-102108600D01*
X128050600Y-102764600D01*
X128057880Y-102801197D01*
X128057882Y-102801202D01*
X128078613Y-102832227D01*
X128078616Y-102832231D01*
X128542470Y-103296084D01*
X128573501Y-103316819D01*
X128601140Y-103322316D01*
X128610100Y-103324099D01*
X128610102Y-103324099D01*
X128610106Y-103324100D01*
X128610109Y-103324100D01*
X129266092Y-103324100D01*
X129266095Y-103324100D01*
X129302699Y-103316819D01*
X129333731Y-103296084D01*
X129797584Y-102832230D01*
X129818319Y-102801199D01*
X129825600Y-102764594D01*
X129825600Y-102108605D01*
X129818319Y-102072001D01*
X129818318Y-102071999D01*
X129818317Y-102071997D01*
X129797586Y-102040972D01*
X129797584Y-102040969D01*
X129377646Y-101621032D01*
X129366781Y-101594800D01*
X129377647Y-101568566D01*
X129403881Y-101557700D01*
X130238820Y-101557700D01*
X130238821Y-101557700D01*
X130312954Y-101526993D01*
X132873781Y-98966166D01*
X132900015Y-98955300D01*
X148602185Y-98955300D01*
X148628419Y-98966166D01*
X148717017Y-99054764D01*
X148727883Y-99080998D01*
X148726619Y-99090600D01*
X148700600Y-99187708D01*
X148700600Y-99319492D01*
X148709283Y-99351898D01*
X148734706Y-99446781D01*
X148734707Y-99446783D01*
X148734708Y-99446786D01*
X148765993Y-99500973D01*
X148799618Y-99559214D01*
X148800600Y-99560914D01*
X148893786Y-99654100D01*
X148893788Y-99654101D01*
X148943271Y-99682670D01*
X148960557Y-99705198D01*
X148956851Y-99733350D01*
X148934323Y-99750636D01*
X148924721Y-99751900D01*
X142660977Y-99751900D01*
X142586846Y-99782606D01*
X142530106Y-99839345D01*
X142530107Y-99839346D01*
X142530106Y-99839347D01*
X142399935Y-99969517D01*
X142373701Y-99980383D01*
X142364099Y-99979119D01*
X142358097Y-99977511D01*
X142266992Y-99953100D01*
X142135208Y-99953100D01*
X142106695Y-99960739D01*
X142007918Y-99987206D01*
X142007914Y-99987207D01*
X142007914Y-99987208D01*
X141977336Y-100004862D01*
X141893788Y-100053098D01*
X141800598Y-100146288D01*
X141758738Y-100218793D01*
X141739761Y-100251663D01*
X141734706Y-100260418D01*
X141713828Y-100338339D01*
X141700600Y-100387708D01*
X141700600Y-100519492D01*
X141715879Y-100576517D01*
X141734706Y-100646781D01*
X141734707Y-100646783D01*
X141734708Y-100646786D01*
X141761398Y-100693014D01*
X141797812Y-100756086D01*
X141800600Y-100760914D01*
X141893786Y-100854100D01*
X142007914Y-100919992D01*
X142135208Y-100954100D01*
X142135209Y-100954100D01*
X142266991Y-100954100D01*
X142266992Y-100954100D01*
X142394286Y-100919992D01*
X142508414Y-100854100D01*
X142601600Y-100760914D01*
X142667492Y-100646786D01*
X142701600Y-100519492D01*
X142701600Y-100387708D01*
X142675579Y-100290596D01*
X142679285Y-100262447D01*
X142685182Y-100254763D01*
X142773781Y-100166166D01*
X142800014Y-100155300D01*
X147424721Y-100155300D01*
X147450955Y-100166166D01*
X147461821Y-100192400D01*
X147450955Y-100218634D01*
X147443272Y-100224528D01*
X147431937Y-100231073D01*
X147393788Y-100253098D01*
X147300598Y-100346288D01*
X147234706Y-100460418D01*
X147218878Y-100519492D01*
X147200600Y-100587708D01*
X147200600Y-100719492D01*
X147210405Y-100756084D01*
X147234706Y-100846781D01*
X147234707Y-100846783D01*
X147234708Y-100846786D01*
X147276974Y-100919992D01*
X147296088Y-100953100D01*
X147300600Y-100960914D01*
X147308776Y-100969090D01*
X147319642Y-100995323D01*
X147308776Y-101021557D01*
X147282542Y-101032423D01*
X147263992Y-101027453D01*
X147253780Y-101021557D01*
X147194286Y-100987208D01*
X147194283Y-100987207D01*
X147194281Y-100987206D01*
X147103735Y-100962945D01*
X147066992Y-100953100D01*
X146935208Y-100953100D01*
X146906695Y-100960739D01*
X146807918Y-100987206D01*
X146807914Y-100987207D01*
X146807914Y-100987208D01*
X146777336Y-101004862D01*
X146693788Y-101053098D01*
X146693786Y-101053099D01*
X146693786Y-101053100D01*
X146605851Y-101141034D01*
X146579619Y-101151900D01*
X133660977Y-101151900D01*
X133586848Y-101182605D01*
X132699934Y-102069517D01*
X132673700Y-102080383D01*
X132664098Y-102079119D01*
X132637544Y-102072004D01*
X132566992Y-102053100D01*
X132435208Y-102053100D01*
X132407912Y-102060414D01*
X132307918Y-102087206D01*
X132307914Y-102087207D01*
X132307914Y-102087208D01*
X132302039Y-102090600D01*
X132193788Y-102153098D01*
X132100598Y-102246288D01*
X132034706Y-102360418D01*
X132011566Y-102446781D01*
X132000600Y-102487708D01*
X132000600Y-102619492D01*
X132015879Y-102676517D01*
X132034706Y-102746781D01*
X132034707Y-102746783D01*
X132034708Y-102746786D01*
X132100600Y-102860914D01*
X132193786Y-102954100D01*
X132307914Y-103019992D01*
X132435208Y-103054100D01*
X132435209Y-103054100D01*
X132566991Y-103054100D01*
X132566992Y-103054100D01*
X132694286Y-103019992D01*
X132808414Y-102954100D01*
X132901600Y-102860914D01*
X132967492Y-102746786D01*
X133001600Y-102619492D01*
X133001600Y-102487708D01*
X132975579Y-102390597D01*
X132979285Y-102362448D01*
X132985177Y-102354768D01*
X133773781Y-101566166D01*
X133800015Y-101555300D01*
X134124586Y-101555300D01*
X134150820Y-101566166D01*
X134161686Y-101592400D01*
X134150820Y-101618632D01*
X133937030Y-101832423D01*
X133727219Y-102042234D01*
X133700985Y-102053100D01*
X133635208Y-102053100D01*
X133607912Y-102060414D01*
X133507918Y-102087206D01*
X133507914Y-102087207D01*
X133507914Y-102087208D01*
X133502039Y-102090600D01*
X133393788Y-102153098D01*
X133300598Y-102246288D01*
X133234706Y-102360418D01*
X133211566Y-102446781D01*
X133200600Y-102487708D01*
X133200600Y-102619492D01*
X133215879Y-102676517D01*
X133234706Y-102746781D01*
X133234707Y-102746783D01*
X133234708Y-102746786D01*
X133300600Y-102860914D01*
X133393786Y-102954100D01*
X133507914Y-103019992D01*
X133635208Y-103054100D01*
X133635209Y-103054100D01*
X133766991Y-103054100D01*
X133766992Y-103054100D01*
X133894286Y-103019992D01*
X134008414Y-102954100D01*
X134101600Y-102860914D01*
X134167492Y-102746786D01*
X134201600Y-102619492D01*
X134201600Y-102487708D01*
X134500600Y-102487708D01*
X134500600Y-102619492D01*
X134515879Y-102676517D01*
X134534706Y-102746781D01*
X134534707Y-102746783D01*
X134534708Y-102746786D01*
X134600600Y-102860914D01*
X134693786Y-102954100D01*
X134807914Y-103019992D01*
X134935208Y-103054100D01*
X134935209Y-103054100D01*
X135066989Y-103054100D01*
X135066992Y-103054100D01*
X135164100Y-103028079D01*
X135192250Y-103031785D01*
X135199934Y-103037681D01*
X136386846Y-104224593D01*
X136460979Y-104255300D01*
X136541220Y-104255300D01*
X145102185Y-104255300D01*
X145128419Y-104266166D01*
X145688534Y-104826281D01*
X145699400Y-104852515D01*
X145699400Y-109640228D01*
X145688534Y-109666462D01*
X145662300Y-109677328D01*
X145652698Y-109676064D01*
X145596360Y-109660969D01*
X145566992Y-109653100D01*
X145435208Y-109653100D01*
X145406695Y-109660739D01*
X145307918Y-109687206D01*
X145307914Y-109687207D01*
X145307914Y-109687208D01*
X145299611Y-109692002D01*
X145193788Y-109753098D01*
X145100598Y-109846288D01*
X145052362Y-109929836D01*
X145038354Y-109954100D01*
X145034706Y-109960418D01*
X145018744Y-110019992D01*
X145000600Y-110087708D01*
X145000600Y-110219492D01*
X145015879Y-110276517D01*
X145034706Y-110346781D01*
X145034707Y-110346783D01*
X145034708Y-110346786D01*
X145077672Y-110421202D01*
X145095584Y-110452227D01*
X145100600Y-110460914D01*
X145193786Y-110554100D01*
X145307914Y-110619992D01*
X145435208Y-110654100D01*
X145435209Y-110654100D01*
X145566991Y-110654100D01*
X145566992Y-110654100D01*
X145694286Y-110619992D01*
X145808414Y-110554100D01*
X145901600Y-110460914D01*
X145967492Y-110346786D01*
X146001600Y-110219492D01*
X146001600Y-110087708D01*
X145975579Y-109990597D01*
X145979285Y-109962448D01*
X145985177Y-109954768D01*
X146072093Y-109867854D01*
X146072093Y-109867852D01*
X146074676Y-109865270D01*
X146076109Y-109866703D01*
X146093824Y-109854839D01*
X146121679Y-109860350D01*
X146127061Y-109865732D01*
X146127524Y-109865270D01*
X146130106Y-109867852D01*
X146130107Y-109867854D01*
X146216353Y-109954100D01*
X146217017Y-109954764D01*
X146227883Y-109980998D01*
X146226619Y-109990600D01*
X146200600Y-110087708D01*
X146200600Y-110219492D01*
X146215879Y-110276517D01*
X146234706Y-110346781D01*
X146234707Y-110346783D01*
X146234708Y-110346786D01*
X146277672Y-110421202D01*
X146295584Y-110452227D01*
X146300600Y-110460914D01*
X146393786Y-110554100D01*
X146507914Y-110619992D01*
X146635208Y-110654100D01*
X146635209Y-110654100D01*
X146766991Y-110654100D01*
X146766992Y-110654100D01*
X146894286Y-110619992D01*
X147008414Y-110554100D01*
X147101600Y-110460914D01*
X147167492Y-110346786D01*
X147201600Y-110219492D01*
X147201600Y-110087708D01*
X147167492Y-109960414D01*
X147101600Y-109846286D01*
X147008414Y-109753100D01*
X146894286Y-109687208D01*
X146894283Y-109687207D01*
X146894281Y-109687206D01*
X146796371Y-109660972D01*
X146766992Y-109653100D01*
X146635208Y-109653100D01*
X146605825Y-109660973D01*
X146549502Y-109676064D01*
X146521350Y-109672357D01*
X146504064Y-109649830D01*
X146502800Y-109640228D01*
X146502800Y-104413480D01*
X146502799Y-104413477D01*
X146472093Y-104339346D01*
X146415354Y-104282606D01*
X146415354Y-104282607D01*
X145515354Y-103382607D01*
X145515352Y-103382606D01*
X145515351Y-103382605D01*
X145441222Y-103351900D01*
X145441221Y-103351900D01*
X137400015Y-103351900D01*
X137373781Y-103341034D01*
X136785181Y-102752434D01*
X136774315Y-102726200D01*
X136775577Y-102716607D01*
X136801600Y-102619492D01*
X136801600Y-102487708D01*
X136767492Y-102360414D01*
X136701600Y-102246286D01*
X136608414Y-102153100D01*
X136584927Y-102139540D01*
X136581927Y-102137808D01*
X136494286Y-102087208D01*
X136494283Y-102087207D01*
X136494281Y-102087206D01*
X136394288Y-102060414D01*
X136366992Y-102053100D01*
X136235208Y-102053100D01*
X136207912Y-102060414D01*
X136107918Y-102087206D01*
X136107914Y-102087207D01*
X136107914Y-102087208D01*
X136102039Y-102090600D01*
X135993788Y-102153098D01*
X135900598Y-102246288D01*
X135834706Y-102360418D01*
X135811566Y-102446781D01*
X135800600Y-102487708D01*
X135800600Y-102619492D01*
X135815879Y-102676517D01*
X135834706Y-102746781D01*
X135834707Y-102746783D01*
X135834708Y-102746786D01*
X135900600Y-102860914D01*
X135993786Y-102954100D01*
X136107914Y-103019992D01*
X136235208Y-103054100D01*
X136235209Y-103054100D01*
X136366989Y-103054100D01*
X136366992Y-103054100D01*
X136464100Y-103028079D01*
X136492250Y-103031785D01*
X136499934Y-103037681D01*
X137186847Y-103724594D01*
X137230273Y-103742581D01*
X137260979Y-103755300D01*
X137260980Y-103755300D01*
X137341221Y-103755300D01*
X145302185Y-103755300D01*
X145328419Y-103766166D01*
X146088534Y-104526281D01*
X146099400Y-104552515D01*
X146099400Y-104577085D01*
X146088534Y-104603319D01*
X146062300Y-104614185D01*
X146036066Y-104603319D01*
X146015354Y-104582607D01*
X145688046Y-104255299D01*
X145315354Y-103882607D01*
X145315352Y-103882606D01*
X145315351Y-103882605D01*
X145241222Y-103851900D01*
X145241221Y-103851900D01*
X136600015Y-103851900D01*
X136573781Y-103841034D01*
X135485181Y-102752434D01*
X135474315Y-102726200D01*
X135475577Y-102716607D01*
X135501600Y-102619492D01*
X135501600Y-102487708D01*
X135467492Y-102360414D01*
X135401600Y-102246286D01*
X135308414Y-102153100D01*
X135284927Y-102139540D01*
X135281927Y-102137808D01*
X135194286Y-102087208D01*
X135194283Y-102087207D01*
X135194281Y-102087206D01*
X135094288Y-102060414D01*
X135066992Y-102053100D01*
X134935208Y-102053100D01*
X134907912Y-102060414D01*
X134807918Y-102087206D01*
X134807914Y-102087207D01*
X134807914Y-102087208D01*
X134802039Y-102090600D01*
X134693788Y-102153098D01*
X134600598Y-102246288D01*
X134534706Y-102360418D01*
X134511566Y-102446781D01*
X134500600Y-102487708D01*
X134201600Y-102487708D01*
X134167492Y-102360414D01*
X134112926Y-102265904D01*
X134109221Y-102237754D01*
X134118821Y-102221124D01*
X134373781Y-101966166D01*
X134400015Y-101955300D01*
X145702185Y-101955300D01*
X145728419Y-101966166D01*
X145817017Y-102054764D01*
X145827883Y-102080998D01*
X145826619Y-102090600D01*
X145821796Y-102108600D01*
X145800600Y-102187708D01*
X145800600Y-102319492D01*
X145810051Y-102354764D01*
X145834706Y-102446781D01*
X145834707Y-102446783D01*
X145834708Y-102446786D01*
X145900600Y-102560914D01*
X145993786Y-102654100D01*
X145993788Y-102654101D01*
X146043271Y-102682670D01*
X146060557Y-102705198D01*
X146056851Y-102733350D01*
X146034323Y-102750636D01*
X146024721Y-102751900D01*
X138114471Y-102751900D01*
X138088237Y-102741034D01*
X138077371Y-102714800D01*
X138078635Y-102705198D01*
X138092326Y-102654101D01*
X138101600Y-102619492D01*
X138101600Y-102487708D01*
X138067492Y-102360414D01*
X138001600Y-102246286D01*
X137908414Y-102153100D01*
X137884927Y-102139540D01*
X137881927Y-102137808D01*
X137794286Y-102087208D01*
X137794283Y-102087207D01*
X137794281Y-102087206D01*
X137694288Y-102060414D01*
X137666992Y-102053100D01*
X137535208Y-102053100D01*
X137507912Y-102060414D01*
X137407918Y-102087206D01*
X137407914Y-102087207D01*
X137407914Y-102087208D01*
X137402039Y-102090600D01*
X137293788Y-102153098D01*
X137200598Y-102246288D01*
X137134706Y-102360418D01*
X137111566Y-102446781D01*
X137100600Y-102487708D01*
X137100600Y-102619492D01*
X137115879Y-102676517D01*
X137134706Y-102746781D01*
X137134707Y-102746783D01*
X137134708Y-102746786D01*
X137200600Y-102860914D01*
X137293786Y-102954100D01*
X137407914Y-103019992D01*
X137535208Y-103054100D01*
X137535209Y-103054100D01*
X137666989Y-103054100D01*
X137666992Y-103054100D01*
X137764100Y-103028079D01*
X137792250Y-103031785D01*
X137799934Y-103037681D01*
X137830107Y-103067854D01*
X137830106Y-103067854D01*
X137886846Y-103124593D01*
X137960979Y-103155300D01*
X137960980Y-103155300D01*
X146841220Y-103155300D01*
X146841221Y-103155300D01*
X146915354Y-103124593D01*
X147436067Y-102603879D01*
X147462300Y-102593014D01*
X147488534Y-102603880D01*
X147499400Y-102630114D01*
X147499400Y-112054685D01*
X147488534Y-112080919D01*
X146228419Y-113341034D01*
X146202185Y-113351900D01*
X142183996Y-113351900D01*
X142157762Y-113341034D01*
X142151866Y-113333350D01*
X142101601Y-113246288D01*
X142101600Y-113246286D01*
X142008414Y-113153100D01*
X141894286Y-113087208D01*
X141894283Y-113087207D01*
X141894281Y-113087206D01*
X141803735Y-113062945D01*
X141766992Y-113053100D01*
X141635208Y-113053100D01*
X141606695Y-113060739D01*
X141507918Y-113087206D01*
X141507914Y-113087207D01*
X141507914Y-113087208D01*
X141477336Y-113104862D01*
X141393788Y-113153098D01*
X141300598Y-113246288D01*
X141234706Y-113360418D01*
X141227756Y-113386358D01*
X141200600Y-113487708D01*
X141200600Y-113619492D01*
X141208668Y-113649603D01*
X141234706Y-113746781D01*
X141234707Y-113746783D01*
X141234708Y-113746786D01*
X141300600Y-113860914D01*
X141393786Y-113954100D01*
X141507914Y-114019992D01*
X141635208Y-114054100D01*
X141635209Y-114054100D01*
X141766991Y-114054100D01*
X141766992Y-114054100D01*
X141894286Y-114019992D01*
X142008414Y-113954100D01*
X142101600Y-113860914D01*
X142151866Y-113773849D01*
X142174394Y-113756564D01*
X142183996Y-113755300D01*
X146341220Y-113755300D01*
X146341221Y-113755300D01*
X146415354Y-113724593D01*
X147872093Y-112267854D01*
X147902800Y-112193721D01*
X147902800Y-112113479D01*
X147902800Y-101136496D01*
X147913666Y-101110262D01*
X147921350Y-101104366D01*
X148008414Y-101054100D01*
X148101600Y-100960914D01*
X148167492Y-100846786D01*
X148201600Y-100719492D01*
X148201600Y-100587708D01*
X148167492Y-100460414D01*
X148101600Y-100346286D01*
X148008414Y-100253100D01*
X147958928Y-100224529D01*
X147941643Y-100202002D01*
X147945349Y-100173850D01*
X147967877Y-100156564D01*
X147977479Y-100155300D01*
X154641220Y-100155300D01*
X154641221Y-100155300D01*
X154715354Y-100124593D01*
X156102265Y-98737680D01*
X156128498Y-98726815D01*
X156138093Y-98728078D01*
X156235208Y-98754100D01*
X156235210Y-98754100D01*
X156366991Y-98754100D01*
X156366992Y-98754100D01*
X156494286Y-98719992D01*
X156608414Y-98654100D01*
X156701600Y-98560914D01*
X156767492Y-98446786D01*
X156801600Y-98319492D01*
X156801600Y-98187708D01*
X156767492Y-98060414D01*
X156701600Y-97946286D01*
X156608414Y-97853100D01*
X156494286Y-97787208D01*
X156494283Y-97787207D01*
X156494281Y-97787206D01*
X156403735Y-97762945D01*
X156366992Y-97753100D01*
X156235208Y-97753100D01*
X156206695Y-97760739D01*
X156107918Y-97787206D01*
X156107914Y-97787207D01*
X156107914Y-97787208D01*
X156077336Y-97804862D01*
X155993788Y-97853098D01*
X155900598Y-97946288D01*
X155834706Y-98060418D01*
X155815165Y-98133350D01*
X155800600Y-98187708D01*
X155800600Y-98319492D01*
X155826619Y-98416598D01*
X155822912Y-98444750D01*
X155817017Y-98452434D01*
X154528419Y-99741034D01*
X154502185Y-99751900D01*
X149477479Y-99751900D01*
X149451245Y-99741034D01*
X149440379Y-99714800D01*
X149451245Y-99688566D01*
X149458929Y-99682670D01*
X149508414Y-99654100D01*
X149601600Y-99560914D01*
X149667492Y-99446786D01*
X149701600Y-99319492D01*
X149701600Y-99187708D01*
X149667492Y-99060414D01*
X149601600Y-98946286D01*
X149508414Y-98853100D01*
X149478326Y-98835728D01*
X149461041Y-98813203D01*
X149464747Y-98785050D01*
X149478325Y-98771471D01*
X149508414Y-98754100D01*
X149601600Y-98660914D01*
X149667492Y-98546786D01*
X149701600Y-98419492D01*
X149701600Y-98287708D01*
X149667492Y-98160414D01*
X149601600Y-98046286D01*
X149508414Y-97953100D01*
X149496615Y-97946288D01*
X149481927Y-97937808D01*
X149394286Y-97887208D01*
X149394283Y-97887207D01*
X149394281Y-97887206D01*
X149303735Y-97862945D01*
X149266992Y-97853100D01*
X149135208Y-97853100D01*
X149106695Y-97860739D01*
X149007918Y-97887206D01*
X149007914Y-97887207D01*
X149007914Y-97887208D01*
X148977336Y-97904862D01*
X148893788Y-97953098D01*
X148800598Y-98046288D01*
X148750334Y-98133350D01*
X148727806Y-98150636D01*
X148718204Y-98151900D01*
X132560977Y-98151900D01*
X132530273Y-98164617D01*
X132530273Y-98164618D01*
X132486847Y-98182606D01*
X129828419Y-100841034D01*
X129802185Y-100851900D01*
X129436234Y-100851900D01*
X129410000Y-100841034D01*
X129399134Y-100814800D01*
X129410000Y-100788566D01*
X129857313Y-100341254D01*
X129890754Y-100291204D01*
X129890756Y-100291201D01*
X129902499Y-100232169D01*
X129902500Y-100232161D01*
X129902500Y-99997801D01*
X129902499Y-99997800D01*
X129436904Y-99997800D01*
X129446100Y-99963480D01*
X129446100Y-99829720D01*
X129436904Y-99795400D01*
X129902499Y-99795400D01*
X129902500Y-99795399D01*
X129902500Y-99561034D01*
X129902499Y-99561028D01*
X129890755Y-99501997D01*
X129857313Y-99451947D01*
X129382754Y-98977386D01*
X129332704Y-98943945D01*
X129332701Y-98943943D01*
X129273669Y-98932200D01*
X129039301Y-98932200D01*
X129039300Y-98932201D01*
X129039300Y-99397795D01*
X129004980Y-99388600D01*
X128871220Y-99388600D01*
X128836900Y-99397795D01*
X128836900Y-98932201D01*
X128836899Y-98932200D01*
X128602528Y-98932200D01*
X128543497Y-98943944D01*
X128493447Y-98977386D01*
X128018886Y-99451945D01*
X127985445Y-99501995D01*
X127985443Y-99501998D01*
X127973700Y-99561030D01*
X127973700Y-99795399D01*
X127973701Y-99795400D01*
X128439296Y-99795400D01*
X128430100Y-99829720D01*
X128430100Y-99963480D01*
X128439296Y-99997800D01*
X127973701Y-99997800D01*
X127973700Y-99997801D01*
X127973700Y-100232171D01*
X127985444Y-100291202D01*
X128018886Y-100341252D01*
X128466198Y-100788566D01*
X128477064Y-100814800D01*
X128466198Y-100841034D01*
X128439964Y-100851900D01*
X127654015Y-100851900D01*
X127627781Y-100841034D01*
X127194514Y-100407767D01*
X127183648Y-100381533D01*
X127194514Y-100355299D01*
X127211474Y-100338339D01*
X127257584Y-100292230D01*
X127278319Y-100261199D01*
X127285600Y-100224594D01*
X127285600Y-99568605D01*
X127285494Y-99568076D01*
X127285172Y-99566450D01*
X127279911Y-99540009D01*
X127278319Y-99532001D01*
X127278318Y-99531999D01*
X127278317Y-99531997D01*
X127257586Y-99500972D01*
X127257584Y-99500969D01*
X126793730Y-99037116D01*
X126762699Y-99016381D01*
X126762695Y-99016380D01*
X126726099Y-99009100D01*
X126726094Y-99009100D01*
X126070105Y-99009100D01*
X126070099Y-99009100D01*
X126033502Y-99016380D01*
X126033497Y-99016382D01*
X126002472Y-99037113D01*
X125538613Y-99500973D01*
X125517883Y-99531997D01*
X125517880Y-99532004D01*
X125510600Y-99568600D01*
X124926600Y-99568600D01*
X124926600Y-98316200D01*
X124937466Y-98289966D01*
X124963700Y-98279100D01*
X130511661Y-98279100D01*
X130511662Y-98279100D01*
X130526600Y-98264162D01*
X130526600Y-96754820D01*
X130526679Y-96752394D01*
X130543333Y-96498299D01*
X130543967Y-96493487D01*
X130570997Y-96357597D01*
X130593407Y-96244930D01*
X130594654Y-96240277D01*
X130676121Y-96000284D01*
X130677971Y-95995820D01*
X130790061Y-95768522D01*
X130792482Y-95764331D01*
X130933276Y-95553619D01*
X130936225Y-95549774D01*
X131103328Y-95359230D01*
X131106730Y-95355828D01*
X131297274Y-95188725D01*
X131301119Y-95185776D01*
X131511831Y-95044982D01*
X131516022Y-95042561D01*
X131743320Y-94930471D01*
X131747784Y-94928621D01*
X131987777Y-94847154D01*
X131992430Y-94845907D01*
X132240989Y-94796466D01*
X132245796Y-94795833D01*
X132499895Y-94779179D01*
X132502321Y-94779100D01*
X164940200Y-94779100D01*
X164966434Y-94789966D01*
G37*
G04 #@! TD.AperFunction*
M02*
